<svg id="Layer_1" data-name="Layer 1" xmlns="http://www.w3.org/2000/svg" viewBox="0 0 500 500"><defs><style>.cls-1{fill:#fff;}.cls-2{opacity:0.3;}.cls-3{fill:#7673c0;}</style></defs><title>black-sticker-selfie</title><path class="cls-1" d="M468.44,0H31.56A31.6,31.6,0,0,0,0,31.56V468.44A31.6,31.6,0,0,0,31.56,500H468.44A31.6,31.6,0,0,0,500,468.44V31.56A31.6,31.6,0,0,0,468.44,0ZM457.93,42.07V373.54H42.07V42.07Z"/><g class="cls-2"><path class="cls-3" d="M468.44,3h0A28.64,28.64,0,0,1,497,31.56V468.44A28.64,28.64,0,0,1,468.44,497H31.56A28.64,28.64,0,0,1,3,468.44V31.56A28.64,28.64,0,0,1,31.56,3H468.44m0-3H31.56A31.6,31.6,0,0,0,0,31.56V468.44A31.6,31.6,0,0,0,31.56,500H468.44A31.6,31.6,0,0,0,500,468.44V31.56A31.6,31.6,0,0,0,468.44,0Z"/></g></svg>