<svg id="Layer_1" data-name="Layer 1" xmlns="http://www.w3.org/2000/svg" viewBox="0 0 500 500"><defs><style>.cls-1,.cls-8{fill:#fff;}.cls-2{opacity:0.3;}.cls-3{fill:#7673c0;}.cls-4{fill:#f6d2a2;}.cls-4,.cls-5,.cls-6,.cls-7,.cls-8{fill-rule:evenodd;}.cls-5{fill:#6ad7e5;}.cls-7{fill:#c6b198;}.cls-9{fill:#302c2d;}.cls-10{fill:#231f20;}</style></defs><title>go-gopher-selfie</title><path class="cls-1" d="M468.44,0H31.56A31.6,31.6,0,0,0,0,31.56V468.44A31.6,31.6,0,0,0,31.56,500H468.44A31.6,31.6,0,0,0,500,468.44V31.56A31.6,31.6,0,0,0,468.44,0ZM457.93,42.07V373.54H42.07V42.07Z"/><g class="cls-2"><path class="cls-3" d="M468.44,3h0A28.64,28.64,0,0,1,497,31.56V468.44A28.64,28.64,0,0,1,468.44,497H31.56A28.64,28.64,0,0,1,3,468.44V31.56A28.64,28.64,0,0,1,31.56,3H468.44m0-3H31.56A31.6,31.6,0,0,0,0,31.56V468.44A31.6,31.6,0,0,0,31.56,500H468.44A31.6,31.6,0,0,0,500,468.44V31.56A31.6,31.6,0,0,0,468.44,0Z"/></g><path class="cls-1" d="M96.69,484.86c-4.23,0-7-2.51-8.75-4.65a52.49,52.49,0,0,1-16.5,2.46c-1.84,0-3.73-.08-5.6-.24a53,53,0,0,1-13.75-3,23.53,23.53,0,0,1-3.5,2.45,11.73,11.73,0,0,1-5.91,1.64h-.36a11.09,11.09,0,0,1-3-.52l-.55-.2a9.57,9.57,0,0,1-4.5-2.91,9.86,9.86,0,0,1-1.45-1.39l-.55-.64-.4-.74a11.82,11.82,0,0,1-1.37-4.39,12.24,12.24,0,0,1,2.29-9.55c-5-9.89-4.53-21.77-3.55-32.07L29,431a10.68,10.68,0,0,1-4.78-5.78,10.39,10.39,0,0,1-1.4-4.57c-.3-4.78,2.6-8.65,5.41-10.68a16.76,16.76,0,0,1,2.11-1.29c-.05-1.07-.1-2.11-.15-3.1-.33-6.59-.7-13.88.39-21.31a15.39,15.39,0,0,1-4.06-9.11A17.55,17.55,0,0,1,34.61,359a16.23,16.23,0,0,1,12.61-2.19c8-4.71,17.17-5.8,24.62-6.18h.76c8.21.27,17.41,1.3,25.28,6.31a16.48,16.48,0,0,1,3.94-.49,15.77,15.77,0,0,1,8.75,2.67,18,18,0,0,1,7.74,16.8,15.88,15.88,0,0,1-4.82,9.59,148,148,0,0,1,.62,22.15c0,1.15,0,2.26-.07,3.33a16.74,16.74,0,0,1,1.88,1.33c2.55,2.09,5.33,6.22,4.75,11a9.7,9.7,0,0,1-.44,2,9.27,9.27,0,0,1-.41,1.39,9.74,9.74,0,0,1-1.81,3,10.55,10.55,0,0,1-2.63,2.74,10,10,0,0,1-1,.69c0,10.44-1,21-5.77,30.26-.31.6-.63,1.19-1,1.77a14.06,14.06,0,0,1,1.87,7.26,11.8,11.8,0,0,1-5.15,9.38,12.85,12.85,0,0,1-1.2.84A10.38,10.38,0,0,1,96.69,484.86Z"/><path class="cls-1" d="M72.34,358.55c9,.29,17.88,1.57,24.4,7.42a9.4,9.4,0,0,1,5.08-1.61,7.86,7.86,0,0,1,4.38,1.35,10.05,10.05,0,0,1,4.28,9.27,8.46,8.46,0,0,1-5.58,6.84c1.72,8.52,1.52,17.2,1.32,25.67-.07,2.94-.12,5.94-.11,8.94a9.51,9.51,0,0,1,4.79,2c.61.5,2.15,2.18,1.94,3.91a2.54,2.54,0,0,1-.28.87,1.66,1.66,0,0,1-.11.62,1.74,1.74,0,0,1-.71.86,2.81,2.81,0,0,1-1.08,1.34,1.4,1.4,0,0,1-.85.35,2.88,2.88,0,0,1-.59.05h-.1a6.09,6.09,0,0,1-2.81-1c.34,11.41.44,24-4.78,34.29a24.13,24.13,0,0,1-3.86,5.47c1.87,1.67,4,4.37,3.89,6.87a4,4,0,0,1-2,3.31,5.17,5.17,0,0,1-.93.64l-.1.07a2.88,2.88,0,0,1-1.86.86c-2.55,0-4.17-5.09-6.7-6.13-.26.12-.51.25-.77.36a41.6,41.6,0,0,1-17.78,3.57c-1.68,0-3.33-.07-4.94-.21a43,43,0,0,1-15-3.93,9.3,9.3,0,0,0-4,2.36,18.61,18.61,0,0,1-2.8,2,4,4,0,0,1-2,.63h-.1a2.9,2.9,0,0,1-.78-.14,2.19,2.19,0,0,1-.38-.17,2.21,2.21,0,0,1-1.66-1.42l-.18-.12c-.21,0-.28.1-.73-.42a3.9,3.9,0,0,1-.48-1.71c-.79-3.43,2.66-5.9,4.71-7.34a20.41,20.41,0,0,1-1.41-1.78l-.21-.3c-.11-.15-.21-.3-.31-.46-.35-.53-.69-1.07-1-1.65-5-9.2-3.73-21.46-2.6-32.27.17-1.66.33-3.25.47-4.8a7.45,7.45,0,0,1-3.73,1.38h-.12a2.66,2.66,0,0,1-1.28-.34,3,3,0,0,1-1.42-2.36,2.42,2.42,0,0,1-.77-1.62c-.11-1.75,1.52-3.32,2.16-3.78a9.54,9.54,0,0,1,5.53-1.72c0-3.18-.16-6.35-.31-9.47-.41-8-.81-16.15,1.17-24.17a8,8,0,0,1-4.86-6.56,9.69,9.69,0,0,1,4.48-8.74,8.51,8.51,0,0,1,4.6-1.38,9.35,9.35,0,0,1,4.8,1.4c6.6-5.34,15.5-6.72,24-7.15h.09M98.07,469.26a13.36,13.36,0,0,0-2.14-2.34l-.14.11a15.22,15.22,0,0,1,2.28,2.23m-25.5-126.5h-.76l-.37,0c-7.65.39-17,1.47-25.65,5.84-.77-.07-1.54-.11-2.32-.11a24.31,24.31,0,0,0-13.1,3.87,25.49,25.49,0,0,0-11.71,23.46,23.26,23.26,0,0,0,3.69,10.61,121.6,121.6,0,0,0-.11,18.17A20.33,20.33,0,0,0,15,421.12,18.09,18.09,0,0,0,17,428.5a18.61,18.61,0,0,0,4,6.22c-.66,9-.57,18.86,3,28.11a20,20,0,0,0-1.33,11A19.68,19.68,0,0,0,25,480.89l.8,1.48,1.1,1.28A17.29,17.29,0,0,0,29,485.74a17.56,17.56,0,0,0,7.36,4.58l.62.21a18.77,18.77,0,0,0,5.12.89h.6a19.82,19.82,0,0,0,9.79-2.66c.34-.19.68-.39,1-.59a62.29,62.29,0,0,0,11.7,2.11c2.1.18,4.21.27,6.27.27A63.38,63.38,0,0,0,85.74,489a17.72,17.72,0,0,0,11,3.75,18.13,18.13,0,0,0,10.93-3.7c.48-.31.94-.63,1.39-1a19.56,19.56,0,0,0,8.33-15.46,20.76,20.76,0,0,0-1-7.19c4.27-9.11,5.59-18.83,5.85-28.48a18.16,18.16,0,0,0,2.19-2.6,17.52,17.52,0,0,0,2.83-4.84,17.84,17.84,0,0,0,.67-2.15,17.4,17.4,0,0,0,.65-3.13c.88-7.21-2.6-13.34-6.49-17a171.56,171.56,0,0,0-.31-19.08,23.76,23.76,0,0,0,4.44-11.21,25.73,25.73,0,0,0-11.21-24.35,23.67,23.67,0,0,0-13.12-4c-.82,0-1.64.05-2.46.13C90.52,344,80.84,343,72.85,342.77Z"/><path class="cls-4" d="M32,421.14c0,3.48,3.35,2,4.87,1s1.82-.09,2-2.12a33.52,33.52,0,0,0,.32-4A8.75,8.75,0,0,0,33,417.42c-.93.65-2.7,2.78-1,3.72"/><path d="M33.76,423.66a2.16,2.16,0,0,1-1-.23,2.27,2.27,0,0,1-1-2.1,1.52,1.52,0,0,1-.72-1.21c-.07-1.22,1.21-2.53,1.83-3a9.1,9.1,0,0,1,6.48-1.44l.27,0V416a25,25,0,0,1-.22,3.14c0,.3-.07.6-.1.91-.14,1.42-.41,1.63-1.12,1.86a3.56,3.56,0,0,0-1,.49A7.16,7.16,0,0,1,33.76,423.66Zm4.17-7.41a8.28,8.28,0,0,0-4.73,1.43,3.68,3.68,0,0,0-1.56,2.4.93.93,0,0,0,.55.78l.17.09v.19c0,.9.24,1.48.7,1.72.85.45,2.46-.16,3.67-1a4.71,4.71,0,0,1,1.22-.57c.46-.14.56-.17.67-1.31,0-.3.07-.61.1-.91.1-.91.21-1.85.22-2.78A8.68,8.68,0,0,0,37.93,416.25Z"/><path class="cls-5" d="M41.29,380.14c-12.37-4.31-2.37-20.78,7.4-13.37Z"/><path d="M41.44,380.54l-.26-.09c-3.57-1.25-5.68-3.63-5.94-6.7a8.9,8.9,0,0,1,4.59-8.22c2.86-1.57,6.16-1.21,9.06,1l.22.17Zm2.12-15.35a7.1,7.1,0,0,0-3.42.9,8.23,8.23,0,0,0-4.25,7.61c.22,2.73,2.09,4.87,5.25,6.05l7.13-12.89A8,8,0,0,0,43.56,365.19Z"/><path class="cls-5" d="M97.52,367.76c10.21-6.93,18.48,10.15,6.79,13.81Z"/><path d="M104.14,382l-7-14.31.23-.16c4-2.74,7.25-1.56,8.8-.61a9,9,0,0,1,4.14,8.56c-.38,3.08-2.46,5.37-5.87,6.44Zm-6.21-14.09,6.55,13.31c3-1,4.83-3.08,5.17-5.82a8.38,8.38,0,0,0-3.85-7.93C103.42,366,100.63,366.13,97.93,367.87Z"/><path class="cls-4" d="M95.58,466.88c2.45,1.77,6.85,7,3,9.23-3.77,3.35-5.5-4.13-8.64-5.31C91.36,468.89,93.17,467.17,95.58,466.88Z"/><path d="M96.69,477.29l-.24,0c-1.44-.15-2.52-1.62-3.67-3.18-.93-1.27-1.89-2.58-3-3l-.41-.15.26-.34c1.2-1.58,3.12-3.72,5.89-4.05l.13,0,.1.08c1.57,1.13,4.77,4.38,4.63,7.17a4.73,4.73,0,0,1-3.71,3.5Zm-6.28-6.61a10.15,10.15,0,0,1,2.89,3c1,1.38,2.06,2.8,3.22,2.93a2.44,2.44,0,0,0,1.82-.77,2.5,2.5,0,0,0,1.42-2.11c.11-2.24-2.44-5.19-4.26-6.55C93.7,467.47,92.08,468.58,90.41,470.68Z"/><path d="M98.55,476.43a.35.35,0,0,1-.3-.2c-.17-.41-.3-.84-.43-1.26a5.52,5.52,0,0,0-1-2.24.33.33,0,0,1,0-.45.32.32,0,0,1,.45,0,6.33,6.33,0,0,1,1.19,2.48,10,10,0,0,0,.41,1.2.32.32,0,0,1-.17.42Z"/><path class="cls-4" d="M50.39,470.45c-3,.35-4.76,3.1-7.28,4.42s-3.19-.62-3.38-1c-.36-.19-.34.15-.88-.48-2-3.7,2.5-6.13,4.86-7.82C46.93,465,48.8,468,50.39,470.45Z"/><path d="M41.61,475.66a2.18,2.18,0,0,1-.63-.09,2.64,2.64,0,0,1-1.49-1.47h0c-.27,0-.46-.08-.84-.52-2-3.6,1.67-6.07,4.07-7.71.3-.2.59-.39.85-.58l.13-.05c3.32-.56,5.28,2.42,6.85,4.82l.43.65-.52.06c-1.76.2-3.07,1.3-4.47,2.45a16.13,16.13,0,0,1-2.69,1.94A3.42,3.42,0,0,1,41.61,475.66Zm2.23-9.8-.8.55c-2.47,1.68-5.55,3.77-3.9,6.81.21.24.27.24.31.24a.77.77,0,0,1,.43.11l.1.05,0,.09A2.13,2.13,0,0,0,41.18,475a2.26,2.26,0,0,0,1.77-.37,15,15,0,0,0,2.59-1.86,10.33,10.33,0,0,1,4.31-2.52C48.35,467.93,46.63,465.45,43.84,465.86Z"/><path d="M39.73,474.17h0a.33.33,0,0,1-.28-.36,5.22,5.22,0,0,1,1.1-2.35,8,8,0,0,0,.7-1.13.32.32,0,0,1,.58.28,8.35,8.35,0,0,1-.76,1.22,4.68,4.68,0,0,0-1,2.06A.32.32,0,0,1,39.73,474.17Z"/><path class="cls-6" d="M42,375.5c-1.61-1-2.77-2.32-1.68-4.3,1-1.83,2.74-1.55,4.36-.55Z"/><path class="cls-6" d="M101.9,376.5c1.69-.85,3-2.05,2-4.13-.86-1.92-2.6-1.79-4.29-.94Z"/><path class="cls-4" d="M111.33,424.37c-.3,3.46-3.5,1.7-4.94.55s-1.81-.26-1.85-2.3a38.5,38.5,0,0,1,0-4,9,9,0,0,1,6.11,2c.87.74,2.46,3,.67,3.81"/><path d="M109.65,426.72a6.77,6.77,0,0,1-3.46-1.55,3.79,3.79,0,0,0-1-.59c-.69-.29-.93-.52-1-1.95,0-.31,0-.61,0-.92a27.46,27.46,0,0,1,0-3.14l0-.27.28,0a9.1,9.1,0,0,1,6.33,2c.59.5,1.75,1.92,1.58,3.13a1.51,1.51,0,0,1-.82,1.13,2.24,2.24,0,0,1-1.2,2A1.9,1.9,0,0,1,109.65,426.72Zm-4.8-7.81a25.79,25.79,0,0,0,0,2.78c0,.31,0,.62,0,.93,0,1.14.12,1.18.57,1.37a4.34,4.34,0,0,1,1.16.68c1.15.92,2.71,1.69,3.58,1.31.48-.2.76-.75.84-1.64v-.19l.18-.08a.89.89,0,0,0,.61-.71,3.65,3.65,0,0,0-1.36-2.55A8.33,8.33,0,0,0,104.85,418.91Z"/><path class="cls-7" d="M111.33,424.37a2.55,2.55,0,0,1-1.27-.84"/><path d="M111.33,424.69a.28.28,0,0,1-.13,0l-.2-.09a2.4,2.4,0,0,1-1.21-.87.31.31,0,0,1,.09-.44.32.32,0,0,1,.45.1,1.84,1.84,0,0,0,.92.62l.21.09a.33.33,0,0,1,.16.43A.31.31,0,0,1,111.33,424.69Z"/><path class="cls-5" d="M73,359.59c12.53.58,24.2,3,29.8,16.09,4.91,14.58,2.32,29.94,2.54,45.11.18,13,1.16,28.13-5,39.91-6.5,12.4-21.57,14.9-33.85,13.86-9.65-.81-21.19-4.7-26.26-14.32-6-11.3-2.24-27.51-1.28-39.72,1.15-14.47-2.5-29.2,2.56-43.18,5.26-14.49,17.95-17.24,31.5-17.75"/><path d="M71.3,475.08c-1.86,0-3.5-.09-4.83-.2-5.94-.5-20.41-2.91-26.51-14.49-4.81-9.13-3.38-21.37-2.13-32.17.32-2.72.62-5.29.81-7.72a130.39,130.39,0,0,0,0-15.44c-.35-9.22-.72-18.75,2.57-27.83,5.42-14.93,18.48-17.46,31.79-18h0c12.24.57,24.35,2.93,30.08,16.28,3.6,10.69,3.19,21.94,2.8,32.82-.15,4.08-.3,8.29-.24,12.42,0,1.25,0,2.52.07,3.8.23,12,.5,25.53-5.12,36.26C94.28,473,80.3,475.08,71.3,475.08ZM73,359.91c-13.08.5-25.91,3-31.19,17.54-3.25,9-2.89,18.43-2.54,27.59a131.58,131.58,0,0,1,0,15.51c-.19,2.44-.49,5-.81,7.74-1.24,10.71-2.66,22.85,2.06,31.8,5.95,11.3,20.16,13.66,26,14.15,7.58.64,26.05.59,33.53-13.69,5.55-10.58,5.28-24.06,5-35.95,0-1.28,0-2.55-.07-3.8-.06-4.15.09-8.37.24-12.45.39-10.83.79-22-2.76-32.57C96.94,362.78,85.05,360.47,73,359.91Z"/><path class="cls-8" d="M74.5,377.55c1.68,14,23.21,11.31,20.71-2.84C93,362,74.28,364.65,74.5,377.55"/><path d="M84.87,387.09a11.52,11.52,0,0,1-4.35-.83,10.19,10.19,0,0,1-6.33-8.67v0a11,11,0,0,1,10.19-11.39c4.74-.45,10,2,11.14,8.49.72,4.08-.47,7.62-3.36,9.95A11.65,11.65,0,0,1,84.87,387.09Zm-10.06-9.56a9.59,9.59,0,0,0,5.94,8.16,11.29,11.29,0,0,0,11-1.56c2.7-2.19,3.82-5.51,3.14-9.36a9.31,9.31,0,0,0-10.47-8A10.34,10.34,0,0,0,74.81,377.53Z"/><path class="cls-8" d="M48.86,378.62c2.42,12.22,20.78,10,20.59-2.19-.23-14.56-22.77-12.79-20.59,2.19"/><path d="M58.81,387a10,10,0,0,1-10.25-8.36v0c-.64-4.41.77-8.12,4-10.43a11.74,11.74,0,0,1,11.84-1c3.4,1.71,5.3,5,5.37,9.18.1,6.53-5,10.05-9.68,10.55Q59.44,387,58.81,387Zm-9.65-8.47c1.2,6.06,6.31,8.27,10.85,7.81s9.23-3.79,9.14-9.94c-.07-4-1.86-7.05-5-8.65a11.1,11.1,0,0,0-11.21.93C49.88,370.89,48.55,374.39,49.16,378.57Z"/><path class="cls-8" d="M76.4,394.33c-.07,1.81.22,3.85-.18,5.76-.47.85-1.32.9-2.07,1.22a3.06,3.06,0,0,1-2.2-2,44.18,44.18,0,0,1,.43-6.5Z"/><path d="M74.18,401.64l-.1,0a3.33,3.33,0,0,1-2.43-2.19l0-.09a23.49,23.49,0,0,1,.22-4.46c.08-.69.16-1.38.21-2.08l0-.43,4.64,1.74v.23c0,.6,0,1.22,0,1.88a16.75,16.75,0,0,1-.19,3.93l0,.09a2.65,2.65,0,0,1-1.7,1.17l-.53.19Zm-1.91-2.39A2.7,2.7,0,0,0,74.12,401l.49-.17a2.06,2.06,0,0,0,1.31-.83,16,16,0,0,0,.17-3.73c0-.59,0-1.14,0-1.69l-3.4-1.28c0,.56-.11,1.13-.18,1.68A22.23,22.23,0,0,0,72.27,399.25Z"/><ellipse class="cls-9" cx="53.97" cy="376.88" rx="3.54" ry="3.08" transform="translate(-324.14 421.39) rotate(-88.57)"/><ellipse class="cls-1" cx="55.34" cy="377.74" rx="0.9" ry="0.73" transform="translate(-323.96 421.18) rotate(-88.2)"/><ellipse class="cls-9" cx="79.8" cy="377.19" rx="3.54" ry="3.03" transform="translate(-299.41 446.77) rotate(-88.45)"/><ellipse class="cls-1" cx="81.14" cy="378.05" rx="0.9" ry="0.71" transform="translate(-299.33 446.95) rotate(-88.15)"/><path class="cls-8" d="M67.61,393.73c-1.49,3.39.32,10.4,4.17,5.47a44.27,44.27,0,0,1,.43-6.5Z"/><path d="M69.34,401.23a1.76,1.76,0,0,1-.89-.25c-1.75-1.05-2.13-5.11-1.14-7.38l.07-.15,5.18-1.16,0,.43c0,.71-.13,1.41-.21,2.11a22.71,22.71,0,0,0-.22,4.35v.12l-.07.1C70.94,400.8,70,401.23,69.34,401.23ZM67.84,394c-.86,2.16-.37,5.64.94,6.41.89.54,1.93-.4,2.67-1.32a24.9,24.9,0,0,1,.23-4.34q.1-.83.18-1.65Z"/><path class="cls-4" d="M68.34,387.1a4.21,4.21,0,0,0-3.49,5.73c1.59,3.39,5.58,0,8,.41,2.76.19,4.9,3.33,7.22.89,2.58-2.72-.84-5.64-3.54-7Z"/><path class="cls-10" d="M78.13,395.38a6.3,6.3,0,0,1-2.65-.88,7.46,7.46,0,0,0-2.69-.94,6.49,6.49,0,0,0-2.87.51c-2,.62-4.22,1.33-5.36-1.1a4.15,4.15,0,0,1,.3-4,4.42,4.42,0,0,1,3.47-2.22l8.31.07c2,1,4.24,2.77,4.58,4.72a3.16,3.16,0,0,1-1,2.79A2.86,2.86,0,0,1,78.13,395.38Zm-5.79-2.5a3.07,3.07,0,0,1,.53.05,7.77,7.77,0,0,1,2.9,1c1.51.76,2.71,1.35,4,0a2.54,2.54,0,0,0,.79-2.24c-.29-1.7-2.41-3.33-4.17-4.22l-8.06,0a3.77,3.77,0,0,0-2.94,1.9,3.55,3.55,0,0,0-.27,3.37c.9,1.93,2.69,1.36,4.59.76A9.33,9.33,0,0,1,72.34,392.88Z"/><path class="cls-6" d="M68,386.94c0-4.61,8.3-4.8,9.11-.9s-8.84,4.33-9.11.9Z"/><path class="cls-9" d="M112.84,422.35c.21-1.73-1.33-3.41-1.94-3.91a9.51,9.51,0,0,0-4.79-2c0-3,0-6,.11-8.94.2-8.47.4-17.15-1.32-25.67a8.46,8.46,0,0,0,5.58-6.84,10.05,10.05,0,0,0-4.28-9.27c-2.85-1.89-6.28-1.78-9.46.26-6.52-5.85-15.43-7.13-24.4-7.42h-.09c-8.48.43-17.38,1.81-24,7.15a8.63,8.63,0,0,0-9.4,0,9.69,9.69,0,0,0-4.48,8.74A8,8,0,0,0,39.25,381c-2,8-1.58,16.21-1.17,24.17.15,3.12.3,6.29.31,9.47a9.54,9.54,0,0,0-5.53,1.72c-.64.46-2.27,2-2.16,3.78a2.42,2.42,0,0,0,.77,1.62,3,3,0,0,0,1.42,2.36,2.66,2.66,0,0,0,1.28.34A7.29,7.29,0,0,0,38,423.06c-.14,1.55-.3,3.14-.47,4.8-1.12,10.81-2.4,23.07,2.6,32.27a22,22,0,0,0,2.94,4.18c-2.32,1.63-6.49,4.61-4.15,8.81l.15.22a2.32,2.32,0,0,0,1,.71,3.28,3.28,0,0,0,1.74,1.45,2.9,2.9,0,0,0,.78.14,3.92,3.92,0,0,0,2.13-.63,18.61,18.61,0,0,0,2.8-2c1.35-1.12,2.62-2.16,4.12-2.38a44.41,44.41,0,0,0,15.54,3.92l2.15.11c5.38.17,13.75-.32,21-4a10.21,10.21,0,0,1,2.19,2.37c1.21,1.6,2.46,3.26,4.23,3.43H97a3.81,3.81,0,0,0,2.63-1.09,4,4,0,0,0,2-3.31c.08-2.5-2-5.2-3.89-6.87a24.13,24.13,0,0,0,3.86-5.47c5.22-10.27,5.12-22.88,4.78-34.29a6.09,6.09,0,0,0,2.81,1,2.6,2.6,0,0,0,2.62-1.74,1.69,1.69,0,0,0,.71-.86,1.66,1.66,0,0,0,.11-.62A2.61,2.61,0,0,0,112.84,422.35ZM105,367.83a7.41,7.41,0,0,1,3.19,6.83,5.89,5.89,0,0,1-3.79,4.73c-.34-1.39-.74-2.78-1.21-4.16a2.5,2.5,0,0,0,.63-3.22,2.35,2.35,0,0,0-3-1.36,24.61,24.61,0,0,0-2.22-2.9A6,6,0,0,1,105,367.83Zm-68.22,6.35a7.2,7.2,0,0,1,3.35-6.36,6.36,6.36,0,0,1,6.25-.37,23.64,23.64,0,0,0-2.67,3.23c-1.34-.58-2.67-.52-3.49,1s-.22,2.79.94,3.69c-.27.62-.54,1.25-.78,1.93-.15.43-.25.86-.39,1.29A5.54,5.54,0,0,1,36.73,374.18ZM34,421.9s0,0,0-.06a2.53,2.53,0,0,0,.87-.73,1.3,1.3,0,0,0-.19-1.75,1.11,1.11,0,0,0-1.24-.14,3.82,3.82,0,0,1,.78-.82,7.26,7.26,0,0,1,4.2-1.3c0,1-.06,2.07-.13,3.1l0,0,0,0a5,5,0,0,0-1.4.68C35.59,421.76,34.35,422.1,34,421.9ZM46.06,471a15.35,15.35,0,0,1-2.46,1.79,1.48,1.48,0,0,1-1.12.3.85.85,0,0,1-.41-.37,5.43,5.43,0,0,1,.71-1.26,8.77,8.77,0,0,0,.81-1.35,1.29,1.29,0,0,0-.55-1.67,1.15,1.15,0,0,0-1.57.58,6.32,6.32,0,0,1-.6,1l-.21.33c.2-1.24,1.56-2.44,3.81-4,.13-.09.24-.18.37-.26a26.42,26.42,0,0,0,3.95,3A20.1,20.1,0,0,0,46.06,471Zm53.1.55a5.35,5.35,0,0,0-1-1.59,1.13,1.13,0,0,0-1.66,0,1.31,1.31,0,0,0,0,1.77,4.72,4.72,0,0,1,.85,1.83l.12.31a1.2,1.2,0,0,1-.5.13c-.78-.08-1.75-1.37-2.61-2.51a19.87,19.87,0,0,0-1.74-2.09,25.27,25.27,0,0,0,3.31-2.48C97.36,468.15,98.92,470.11,99.16,471.57Zm.29-13a22,22,0,0,1-9.51,9.53,1.3,1.3,0,0,0-.26.14c-7.9,4.12-17.45,4.15-22.35,3.81-5.63-.4-19.34-2.48-25.15-13.16-4.61-8.49-3.38-20.31-2.29-30.75.28-2.7.54-5.25.71-7.69q.13-2.19.15-4.38h0v0c0-3.69-.14-7.39-.33-11-.47-9.34-.92-18.17,2.12-26.86C47.4,364.23,59.72,361.69,72.31,361c13.4.44,23.38,3.12,28.5,14.66,3.57,10.18,3.32,20.64,3.06,31.72-.08,3.28-.13,6.64-.1,10a.5.5,0,0,0,0,.13,1,1,0,0,0,0,.17c0,.69,0,1.37,0,2.06,0,1.14.07,2.31.1,3.48h0a2.44,2.44,0,0,1,0,.27C104.26,435.13,104.68,448.28,99.45,458.56Zm6.76-36.13c0-.92-.06-1.84-.08-2.74,0-.25,0-.5,0-.74a7.35,7.35,0,0,1,3.34,1.46c.06,0,.12.13.18.19a1.57,1.57,0,0,0-1,.29,1.86,1.86,0,0,0-.41,2.5,3.71,3.71,0,0,0,.35.42,6.2,6.2,0,0,1-1.88-1C106.53,422.63,106.37,422.53,106.21,422.43Z"/><path class="cls-9" d="M83.36,365.21a11.72,11.72,0,0,0-10.55,12.32v.13a10.92,10.92,0,0,0,6.78,9.17,12.11,12.11,0,0,0,4.18.87,12.27,12.27,0,0,0,8.56-3c2.86-2.57,4-6.31,3.2-10.53C94.21,367.11,88.46,364.58,83.36,365.21Zm7.46,17.57a10.29,10.29,0,0,1-10.39,1.72,8.56,8.56,0,0,1-5.27-7.12,9.34,9.34,0,0,1,8.47-9.69c4-.49,8.57,1.47,9.61,7C94,378.86,92.36,381.4,90.82,382.78Z"/><path class="cls-9" d="M70.16,376.41C70,372,68,368.52,64.43,366.7a12.43,12.43,0,0,0-13,1.34c-3.22,2.56-4.59,6.48-3.87,11v.07A10.78,10.78,0,0,0,58.11,388a12.2,12.2,0,0,0,2-.1C65.09,387.24,70.35,383.36,70.16,376.41Zm-10.34,9c-4.13.56-8.81-1.33-10-6.78-.71-4.59,1.22-7.21,3-8.61A10.12,10.12,0,0,1,63.41,369a8.23,8.23,0,0,1,4.39,7.54C68,381.91,63.91,384.88,59.82,385.42Z"/><path class="cls-9" d="M76.69,385.84v0c-.78-3.5-7.64-3.54-8.8-.07l-.27.06c0-.25,0-.19,0,0a5.24,5.24,0,0,0-3.84,2.77,5.11,5.11,0,0,0-.19,4.68,3.46,3.46,0,0,0,2.19,2c-.25,2.49.46,5.32,2.14,6.26a2.52,2.52,0,0,0,1.14.33,3.41,3.41,0,0,0,2.39-1,4.06,4.06,0,0,0,2.25,1.36l.35.07.32-.14c.15-.07.31-.12.46-.18A3.34,3.34,0,0,0,77,400.31l.12-.36a16.32,16.32,0,0,0,.17-4.05c.12,0,.24,0,.37,0a3.56,3.56,0,0,0,2.83-1.3,4.07,4.07,0,0,0,1.16-3.56C81.15,388.3,77.88,386.44,76.69,385.84ZM69,399.31c-.6-.34-1.14-2.28-.89-4.07.64-.14,1.25-.34,1.79-.51l.62-.21a25.38,25.38,0,0,0-.19,3.93C69.71,399.19,69.23,399.42,69,399.31Zm5.9-3.37a17.54,17.54,0,0,1-.07,3.25,2.12,2.12,0,0,1-.74.34l-.25.09a1.87,1.87,0,0,1-1-.94,22.31,22.31,0,0,1,.18-3.89c0-.15,0-.3,0-.44a9.2,9.2,0,0,1,1.7.69l.09,0C74.9,395.37,74.9,395.65,74.92,395.94Zm3.87-3.05c-.79.85-1.38.67-3-.12a8.34,8.34,0,0,0-3.08-1,2.72,2.72,0,0,0-.49-.05,1.69,1.69,0,0,0-.23,0h0s0,0,0,0a10.81,10.81,0,0,0-2.71.62c-2.24.75-3,.82-3.52-.22a2.49,2.49,0,0,1,.13-2.3,2.9,2.9,0,0,1,2.24-1.59h.54c1.63,1.14,5.09,1.08,6.94-.07h.26c1.91,1,3.34,2.35,3.52,3.39A1.52,1.52,0,0,1,78.79,392.89Z"/></svg>