<svg id="Layer_1" data-name="Layer 1" xmlns="http://www.w3.org/2000/svg" viewBox="0 0 500 500"><defs><style>.cls-1{fill:#fff;}.cls-2{opacity:0.3;}.cls-3{fill:#7673c0;}.cls-4{fill:#57a15c;}</style></defs><title>node-js-selfie</title><path class="cls-1" d="M468.44,0H31.56A31.6,31.6,0,0,0,0,31.56V468.44A31.6,31.6,0,0,0,31.56,500H468.44A31.6,31.6,0,0,0,500,468.44V31.56A31.6,31.6,0,0,0,468.44,0ZM457.93,42.07V373.54H42.07V42.07Z"/><g class="cls-2"><path class="cls-3" d="M468.44,3h0A28.64,28.64,0,0,1,497,31.56V468.44A28.64,28.64,0,0,1,468.44,497H31.56A28.64,28.64,0,0,1,3,468.44V31.56A28.64,28.64,0,0,1,31.56,3H468.44m0-3H31.56A31.6,31.6,0,0,0,0,31.56V468.44A31.6,31.6,0,0,0,31.56,500H468.44A31.6,31.6,0,0,0,500,468.44V31.56A31.6,31.6,0,0,0,468.44,0Z"/></g><path class="cls-1" d="M138.25,397.37A23.4,23.4,0,0,0,126.5,377.2l-42-24.06,0,0,0,0a23.47,23.47,0,0,0-11.51-3h0a23.57,23.57,0,0,0-11.66,3.05l-.05,0-.06,0L19.26,377.66A23.41,23.41,0,0,0,7.68,397.94l.21,48.4a23.46,23.46,0,0,0,11.74,20.19l11.06,6.29.4.24.42.2a39.49,39.49,0,0,0,10.09,3.59,17.23,17.23,0,0,0,6,5.48l13.93,8.16.06,0,.05,0a23.33,23.33,0,0,0,11.6,3.08h.1a23.47,23.47,0,0,0,11.69-3.18l41.82-24.39h0l0,0a23.44,23.44,0,0,0,11.54-20.26Z"/><path class="cls-4" d="M73.31,479.11A8.81,8.81,0,0,1,68.9,478l-14-8.22c-2.09-1.16-1.07-1.58-.38-1.83A28.06,28.06,0,0,0,60.8,465a1.05,1.05,0,0,1,1,.07l10.78,6.34a1.39,1.39,0,0,0,1.3,0L115.77,447a1.33,1.33,0,0,0,.63-1.14l-.21-48.41a1.35,1.35,0,0,0-.65-1.15l-42-24a1.29,1.29,0,0,0-1.29,0L30.4,396.69a1.35,1.35,0,0,0-.66,1.15L30,446.25a1.3,1.3,0,0,0,.66,1.12L42.13,454c6.25,3.09,10-.6,10-4.29L52,401.88a1.22,1.22,0,0,1,1.21-1.22l5.32,0a1.21,1.21,0,0,1,1.22,1.2l.21,47.8c0,8.32-4.48,13.11-12.37,13.14-2.42,0-4.33,0-9.67-2.58l-11-6.28a8.88,8.88,0,0,1-4.43-7.64l-.21-48.41a8.86,8.86,0,0,1,4.37-7.66l41.84-24.42a9.21,9.21,0,0,1,8.82,0l42.05,24.06a8.85,8.85,0,0,1,4.43,7.63l.21,48.41a8.87,8.87,0,0,1-4.37,7.67L77.72,477.91A8.77,8.77,0,0,1,73.31,479.11Z"/><path class="cls-4" d="M86.12,445.7c-18.35.08-22.23-8.33-22.27-15.39a1.22,1.22,0,0,1,1.21-1.22l5.42,0a1.21,1.21,0,0,1,1.21,1c.85,5.52,3.3,8.3,14.4,8.25,8.84,0,12.59-2.06,12.57-6.74,0-2.71-1.09-4.71-14.83-6C72.35,424.52,65.24,422,65.2,412.83c0-8.46,7.08-13.54,19-13.59,13.44-.06,20.11,4.58,21,14.58a1.2,1.2,0,0,1-.31.94,1.24,1.24,0,0,1-.89.39l-5.44,0a1.22,1.22,0,0,1-1.19-.94c-1.33-5.81-4.51-7.65-13.13-7.61-9.65,0-10.75,3.41-10.74,5.92,0,3.06,1.34,3.94,14.37,5.61s19,4,19.07,13.09S99.41,445.65,86.12,445.7Z"/></svg>