<svg id="Layer_1" data-name="Layer 1" xmlns="http://www.w3.org/2000/svg" viewBox="0 0 500 500"><defs><style>.cls-1{fill:#fff;}.cls-2{fill:#430098;fill-rule:evenodd;}</style></defs><title>heroku-logo-selfie</title><path class="cls-1" d="M468.44,0H31.56A31.6,31.6,0,0,0,0,31.56V468.44A31.6,31.6,0,0,0,31.56,500H468.44A31.6,31.6,0,0,0,500,468.44V31.56A31.6,31.6,0,0,0,468.44,0ZM457.93,42.07V373.54H42.07V42.07Z"/><path class="cls-1" d="M116.39,352.84H44.88A27,27,0,0,0,18,379.78v81.43A27,27,0,0,0,41.53,488v7.38l8.07-7.18h66.79a27,27,0,0,0,26.94-26.94V379.78a27,27,0,0,0-26.94-26.94Z"/><path class="cls-2" d="M110.39,374.84a8.94,8.94,0,0,1,8.94,8.94h0v81.43a8.94,8.94,0,0,1-8.94,8.94H38.88A8.93,8.93,0,0,1,30,465.21h0V383.78a9,9,0,0,1,8.93-8.94Zm0,5H38.88a4,4,0,0,0-4,4h0v81.43a4,4,0,0,0,4,4h71.51a4,4,0,0,0,4-4h0V383.78A4,4,0,0,0,110.39,379.8ZM53.53,439.4l11.18,9.93-11.18,9.93Zm9.93-49.67V418a63.13,63.13,0,0,1,18.66-3.35,15.93,15.93,0,0,1,11.81,4.43,15.61,15.61,0,0,1,4.3,10.35v29.9H88.36V429.6c0-2.31-1.16-5.1-6.2-5.1-9.64,0-20.42,4.64-21.45,5.1h-.09l-7,3.18v-43Zm34.77,0a29.1,29.1,0,0,1-7.46,16.15H80.84a38.54,38.54,0,0,0,7.52-16.15h9.87Z"/></svg>