<svg id="Layer_1" data-name="Layer 1" xmlns="http://www.w3.org/2000/svg" viewBox="0 0 500 500"><defs><style>.cls-1{fill:#fff;}.cls-2{fill:#bd0012;}</style></defs><title>ruby-selfie</title><path class="cls-1" d="M468.44,0H31.56A31.6,31.6,0,0,0,0,31.56V468.44A31.6,31.6,0,0,0,31.56,500H468.44A31.6,31.6,0,0,0,500,468.44V31.56A31.6,31.6,0,0,0,468.44,0ZM457.93,42.07V373.54H42.07V42.07Z"/><path class="cls-1" d="M143.11,389.12A30.33,30.33,0,0,0,126,372.6c-3.92-1.53-15.15-4.79-24-7.3a43.37,43.37,0,0,0-13.72-2.07c-11.2,0-24.47,3.57-37.37,10-18.63,9.34-32,22.2-36.66,35.36-8.64,21.45-9.28,25.9-9.55,27.8C3,447.65,6.28,457.89,13.82,465.24c5.06,4.95,11.88,8.48,20.26,10.5,14.38,3.46,48.52,11.47,62.53,14.76l.67.16h0l.05,0A18.57,18.57,0,0,0,118.94,479c.65-1.75,15.9-42.9,22.43-58.3C146.39,408.91,147,398.27,143.11,389.12Z"/><path class="cls-2" d="M129.72,396.29a14.83,14.83,0,0,0-8.36-8c-3.91-1.52-19.65-6-23-6.94-9-3.16-23.81-.79-39.37,7C43.69,396,33,406.25,30,415.22c-1.94,4.82-8.1,20.31-8.7,24.5-2,14,8.45,19.6,17.58,21.8,17,4.1,62.66,14.79,63.12,14.9a3,3,0,0,0,.65.08,2.86,2.86,0,0,0,2.67-1.86c.16-.43,15.89-42.94,22.71-59C131.29,407.89,131.87,401.38,129.72,396.29ZM105,400.2l10.27,15.34-19.49-3.65A40.88,40.88,0,0,0,105,400.2Zm-.94,34.54a26.31,26.31,0,0,1-13.84,10.39l1.47-24.48Zm-42.58.62,20.89,13.81a40.66,40.66,0,0,1-17.09,6.23Zm25,17.88,8.71,14-20.79-8.06A41.5,41.5,0,0,0,86.49,453.24Zm5.12-2.56A32.44,32.44,0,0,0,103.52,444l-3.06,20.9Zm16.88-19.53L96.84,417.89l20.31,3.8C113.59,428.1,110.19,430.37,108.49,431.15ZM84.59,443.8,63.64,430a90.45,90.45,0,0,0,13.43-5.48,92.36,92.36,0,0,0,9-5.13ZM39.3,449.86l-1.72-18.41a27.39,27.39,0,0,0,9.16,1.4,42.85,42.85,0,0,0,4.83-.28Zm16.57-13.49,3.7,19.51-15.68,1-2.21-.53Zm7.29,25a2.94,2.94,0,0,0,.58-.1v.09l.44-.05,2.56,1-3.86-.91Zm47.2-24.82a16.3,16.3,0,0,0,4.18-2.54c-2.07,5.38-4.2,11-6.18,16.19Zm12.39-23.12L122,415.3l-10-15,13,5.74A32.48,32.48,0,0,1,122.75,413.42Zm1.72-14.92a10.05,10.05,0,0,1,.43,1.31L107,391.91a11.12,11.12,0,0,0-.34-2.24c5.16,1.51,10.69,3.17,12.67,3.94A9.14,9.14,0,0,1,124.47,398.5Zm-62.95-5c10.67-5.35,20.6-7.71,27.86-7.71,5.86,0,10,1.54,11.35,4.28h0c2.28,4.54-2.63,13.16-13.15,21.25l-.08,0,0,.06a81.52,81.52,0,0,1-12.93,8c-19.28,9.66-36.14,9.57-39.21,3.44-.82-1.63-.7-3.78.25-6.24.06-.16.13-.32.19-.47h0C38.62,409.35,47.68,400.4,61.52,393.46ZM27.86,448.32l4.64-10,1.44,15.48A13.2,13.2,0,0,1,27.86,448.32Z"/></svg>