<svg id="Layer_1" data-name="Layer 1" xmlns="http://www.w3.org/2000/svg" viewBox="0 0 500 500"><defs><style>.cls-1{fill:#fff;}.cls-2{fill:#79df13;}.cls-3{fill:#44b400;}.cls-4{fill:#88b4ff;}.cls-5{fill:#4d81df;}</style></defs><title>clojure-selfie</title><path class="cls-1" d="M468.44,0H31.56A31.6,31.6,0,0,0,0,31.56V468.44A31.6,31.6,0,0,0,31.56,500H468.44A31.6,31.6,0,0,0,500,468.44V31.56A31.6,31.6,0,0,0,468.44,0ZM457.93,42.07V373.54H42.07V42.07Z"/><path class="cls-1" d="M66.37,464.17h-1a34.53,34.53,0,0,1-11.82-2.47A7.31,7.31,0,0,1,49,455.25c-.05-1-.06-1.94,0-2.78a28.28,28.28,0,0,1,.86-6.31C51,441.75,53.74,435.5,55.87,431c.64-1.34,1.26-2.61,1.82-3.73a7.33,7.33,0,0,1,6.56-4.06,7.14,7.14,0,0,1,.8,0,7.34,7.34,0,0,1,6.32,5.52c2.59,10.4,4.32,16.95,7,20.6a9.79,9.79,0,0,0,.94,1,7.33,7.33,0,0,1-3,12.28A34.56,34.56,0,0,1,66.37,464.17Z"/><path class="cls-1" d="M64.26,430.57C67.13,442.12,69,449,72.47,453.75a17,17,0,0,0,1.73,1.94,27,27,0,0,1-7.83,1.15h-.76a27,27,0,0,1-9.3-1.94c0-.76-.05-1.5,0-2.2A21,21,0,0,1,56.9,448a93.17,93.17,0,0,1,5.59-13.83c.62-1.31,1.22-2.53,1.77-3.62m0-14.66A14.67,14.67,0,0,0,51.13,424c-.64,1.28-1.27,2.57-1.87,3.85a99.14,99.14,0,0,0-6.55,16.45,35.48,35.48,0,0,0-1.09,7.95c0,1,0,2.11.05,3.33a14.67,14.67,0,0,0,9.18,12.89,41.92,41.92,0,0,0,14.3,3h0l1.17,0a42,42,0,0,0,12-1.77,14.66,14.66,0,0,0,6-24.57l-.19-.2c-1.94-2.73-3.79-10.12-5.74-18a14.65,14.65,0,0,0-12.63-11,14.41,14.41,0,0,0-1.6-.08Z"/><path class="cls-1" d="M49.86,458.52A7.36,7.36,0,0,1,45.38,457a34.42,34.42,0,0,1,2.06-56,7.31,7.31,0,0,1,7.9-.12,25.23,25.23,0,0,1,5.52,4.53c3.43,3.75,6.22,10.57,7.59,14.3.41,1.12.82,2.3,1.24,3.56a7.34,7.34,0,0,1-.48,5.73c-2.07,3.92-3.91,7.2-5.54,10.1-3.41,6.11-5.67,10.14-6.73,14.05a7.35,7.35,0,0,1-4.75,5A7.48,7.48,0,0,1,49.86,458.52Z"/><path class="cls-1" d="M51.48,407.07a18.26,18.26,0,0,1,4,3.23c2.16,2.36,4.51,7.48,6.12,11.88.44,1.19.83,2.32,1.17,3.35-6.64,12.54-11,18.77-12.87,25.66a27.1,27.1,0,0,1,1.62-44.12m0-14.66a14.66,14.66,0,0,0-8.09,2.43,42,42,0,0,0-18.76,33.6v.06A42,42,0,0,0,40.9,462.79,14.65,14.65,0,0,0,64,455c.83-3,2.91-6.76,6.06-12.39,1.64-2.93,3.51-6.26,5.62-10.25a14.69,14.69,0,0,0,1-11.47c-.43-1.31-.88-2.59-1.33-3.8-1.89-5.17-5-12.24-9-16.68a32.86,32.86,0,0,0-7.1-5.84,14.66,14.66,0,0,0-7.71-2.19Z"/><path class="cls-1" d="M66.44,488.36c-.59,0-1.17,0-1.76,0A58.65,58.65,0,0,1,7.79,428l0-.83a28.24,28.24,0,0,1,.61-6,6.06,6.06,0,0,1,.19-.7c4.91-15,16.45-24,30.88-24h.71a31.66,31.66,0,0,1,7.39,1.12,7.33,7.33,0,0,1,2.74,12.72A25.27,25.27,0,0,0,65.66,455h.77A25,25,0,0,0,77,452.68a7.34,7.34,0,0,1,5.7-.18,37.1,37.1,0,0,0,7.58,1.77,28.63,28.63,0,0,0,3.44.3h1a54.51,54.51,0,0,0,11.26-1.29,6.9,6.9,0,0,1,1.56-.17,7.32,7.32,0,0,1,5.86,11.72A58.91,58.91,0,0,1,66.44,488.36Z"/><path class="cls-1" d="M39.49,403.71H40a24.48,24.48,0,0,1,5.64.86A32.6,32.6,0,0,0,65.45,462.3h1a32.41,32.41,0,0,0,13.59-3,44.57,44.57,0,0,0,9.1,2.18,37.7,37.7,0,0,0,4.34.38h1.22a61.54,61.54,0,0,0,12.82-1.46A51.26,51.26,0,0,1,66.44,481l-1.55,0a51.31,51.31,0,0,1-49.77-52.82,26,26,0,0,1,.46-5.51c4.54-13.91,14.5-19,23.91-19m0-14.67h0a38.17,38.17,0,0,0-22.27,7C10,401.15,4.76,408.58,1.64,418.13a13.8,13.8,0,0,0-.38,1.4A36.08,36.08,0,0,0,.48,427c0,.25,0,.51,0,.77a66,66,0,0,0,64,67.92l2,0a65.93,65.93,0,0,0,52.79-26.46,14.66,14.66,0,0,0-14.86-23.12,46.28,46.28,0,0,1-9.69,1.13h-.8a22.26,22.26,0,0,1-2.53-.21,31.09,31.09,0,0,1-6-1.37,14.73,14.73,0,0,0-11.42.36,17.74,17.74,0,0,1-7.46,1.63h-.56A17.93,17.93,0,0,1,55,415.88a14.66,14.66,0,0,0-5.48-25.45,38.88,38.88,0,0,0-9.09-1.38h-.94Z"/><path class="cls-1" d="M81.78,459.38a7.21,7.21,0,0,1-2.2-.34,20,20,0,0,1-3.12-1.2c-3-1.51-5.4-4.65-6.86-7a69.7,69.7,0,0,1-5.85-12.85c-1.11-3.15-1.86-5.73-2.14-6.75a3.74,3.74,0,0,1-.12-.45c-2.1-9.16-4.19-17.17-8.48-22.36a7.32,7.32,0,0,1,3.55-11.69,34.63,34.63,0,0,1,9.9-1.45h1a34.59,34.59,0,0,1,33.45,35.25v.24A34.7,34.7,0,0,1,86,458.09,7.38,7.38,0,0,1,81.78,459.38Z"/><path class="cls-1" d="M66.46,402.57h.76a27.18,27.18,0,0,1,26.32,27.93h0a27.11,27.11,0,0,1-11.76,21.54,13.27,13.27,0,0,1-2-.76A11.81,11.81,0,0,1,75.86,447a62.26,62.26,0,0,1-5.19-11.47c-1.29-3.64-2-6.38-2-6.39h0c-2.27-9.89-4.65-18.94-10-25.39a27.5,27.5,0,0,1,7.8-1.14m0-14.66a42.08,42.08,0,0,0-12,1.75,14.67,14.67,0,0,0-7.11,23.39c3.27,3.95,5.17,11.4,7,19.33.07.28.14.56.22.83.38,1.37,1.15,4,2.29,7.19a76.45,76.45,0,0,0,6.53,14.27c2,3.21,5.23,7.43,9.78,9.71A25.82,25.82,0,0,0,77.37,466a14.49,14.49,0,0,0,4.41.68,14.67,14.67,0,0,0,8.33-2.59A42,42,0,0,0,108.2,431v-.39a41.83,41.83,0,0,0-40.52-42.66h-.05c-.39,0-.78,0-1.17,0Z"/><path class="cls-1" d="M94.39,461.32c-.46,0-.91,0-1.36,0a48.11,48.11,0,0,1-5.44-.46,7.34,7.34,0,0,1-4-12.63,25.12,25.12,0,0,0,8.05-17.75v-.18a25.3,25.3,0,0,0-24.52-25.83l-.76,0a24.91,24.91,0,0,0-9.46,1.85,7.32,7.32,0,0,1-7.08-.87c-.41-.3-.73-.52-1-.71a20.3,20.3,0,0,0-9.23-2.44c-.27,0-.49,0-.72,0a18.78,18.78,0,0,0-9.57,2.68,7.32,7.32,0,0,1-9.19-1.46,7.35,7.35,0,0,1-.34-9.31,58.23,58.23,0,0,1,46.61-23.1l1.77,0A58.65,58.65,0,0,1,125,431.45a59.09,59.09,0,0,1-.71,7.45,8.23,8.23,0,0,1-.19.86,29,29,0,0,1-9.76,15.32C109.22,459.17,102.31,461.32,94.39,461.32Z"/><path class="cls-1" d="M66.39,378.38l1.55,0a51.32,51.32,0,0,1,49.77,52.82,52,52,0,0,1-.62,6.53,21.74,21.74,0,0,1-7.26,11.58c-4.41,3.49-10.09,4.65-15.44,4.65-.39,0-.76,0-1.14,0a39.93,39.93,0,0,1-4.63-.39A32.51,32.51,0,0,0,99,430.68h0a32.61,32.61,0,0,0-31.63-33.56l-1,0a32.52,32.52,0,0,0-12.22,2.38c-.49-.36-1-.71-1.53-1a27.56,27.56,0,0,0-12.81-3.51l-1,0a26.16,26.16,0,0,0-13.27,3.69,51.26,51.26,0,0,1,40.78-20.22m0-14.66A65.91,65.91,0,0,0,14,389.7,14.66,14.66,0,0,0,33,411.25a11.54,11.54,0,0,1,5.86-1.68h.48A13.5,13.5,0,0,1,45,411l.49.35a14.65,14.65,0,0,0,14.16,1.74,17.93,17.93,0,0,1,6.71-1.3H67A18,18,0,0,1,84.36,430a1.48,1.48,0,0,0,0,.21,17.76,17.76,0,0,1-5.72,12.6,14.66,14.66,0,0,0,7.93,25.25,53.07,53.07,0,0,0,6.29.54c.51,0,1,0,1.54,0,9.59,0,18.08-2.7,24.54-7.81a36.33,36.33,0,0,0,12.27-19.09,14.06,14.06,0,0,0,.37-1.71,65.88,65.88,0,0,0-63.2-76.29c-.65,0-1.32,0-2,0Z"/><path class="cls-2" d="M64.26,430.57c-.55,1.09-1.15,2.31-1.77,3.62A93.17,93.17,0,0,0,56.9,448a21,21,0,0,0-.62,4.67c0,.7,0,1.44,0,2.2a27,27,0,0,0,9.3,1.94h.76a27,27,0,0,0,7.83-1.15,17,17,0,0,1-1.73-1.94c-3.5-4.76-5.34-11.63-8.21-23.18Z"/><path class="cls-2" d="M51.48,407.07a27.1,27.1,0,0,0-1.62,44.12c1.87-6.89,6.23-13.12,12.87-25.66-.34-1-.73-2.16-1.17-3.35-1.61-4.4-4-9.52-6.12-11.88a18.26,18.26,0,0,0-4-3.23Z"/><path class="cls-3" d="M39.49,403.71c-9.41,0-19.37,5.06-23.91,19a26.76,26.76,0,0,0-.47,5.51A51.33,51.33,0,0,0,64.89,481l1.55,0a51.26,51.26,0,0,0,41.06-20.58,61.54,61.54,0,0,1-12.82,1.46H93.46a37.7,37.7,0,0,1-4.34-.38,44.57,44.57,0,0,1-9.1-2.18,32.41,32.41,0,0,1-13.59,3h-1a32.6,32.6,0,0,1-19.78-57.73,24.48,24.48,0,0,0-5.64-.86Z"/><path class="cls-4" d="M66.46,402.57a27.5,27.5,0,0,0-7.8,1.14c5.32,6.45,7.7,15.5,10,25.39h0s.74,2.75,2,6.39A62.26,62.26,0,0,0,75.86,447a11.81,11.81,0,0,0,3.91,4.32,13.27,13.27,0,0,0,2,.76,27.11,27.11,0,0,0,11.76-21.54h0a27.18,27.18,0,0,0-26.32-27.93Z"/><path class="cls-5" d="M66.39,378.38A51.26,51.26,0,0,0,25.61,398.6a26.16,26.16,0,0,1,13.27-3.69l1,0a27.56,27.56,0,0,1,12.81,3.51c.53.33,1,.68,1.53,1A32.52,32.52,0,0,1,66.4,397.1l1,0A32.61,32.61,0,0,1,99,430.68h0a32.51,32.51,0,0,1-10.39,22.9,39.93,39.93,0,0,0,4.63.39c.38,0,.75,0,1.14,0,5.35,0,11-1.16,15.44-4.65a21.74,21.74,0,0,0,7.26-11.58,52,52,0,0,0,.62-6.53,51.32,51.32,0,0,0-49.77-52.82l-1.55,0Z"/></svg>