<svg id="Layer_1" data-name="Layer 1" xmlns="http://www.w3.org/2000/svg" viewBox="0 0 500 500"><defs><style>.cls-1{fill:#fff;}.cls-2{fill:#430098;fill-rule:evenodd;}.cls-3{opacity:0.3;}.cls-4{fill:#7673c0;}</style></defs><title>heroku-logo-selfie</title><path class="cls-1" d="M468.44,0H31.56A31.6,31.6,0,0,0,0,31.56V468.44A31.6,31.6,0,0,0,31.56,500H468.44A31.6,31.6,0,0,0,500,468.44V31.56A31.6,31.6,0,0,0,468.44,0ZM457.93,42.07V373.54H42.07V42.07Z"/><path class="cls-1" d="M116.39,370.84a8.94,8.94,0,0,1,8.94,8.94v81.43a8.94,8.94,0,0,1-8.94,8.94H44.88A8.93,8.93,0,0,1,36,461.21V379.78a9,9,0,0,1,8.93-8.94h71.51M44.88,465.19h71.51a4,4,0,0,0,4-4V379.78a4,4,0,0,0-4-4H44.88a4,4,0,0,0-4,4v81.43a4,4,0,0,0,4,4m59.42-79.46h-.07a29.1,29.1,0,0,1-7.46,16.15H86.84a38.54,38.54,0,0,0,7.52-16.15h9.94m-34.84,0V414a63.13,63.13,0,0,1,18.66-3.35c.25,0,.5,0,.76,0a16,16,0,0,1,11.05,4.45,15.61,15.61,0,0,1,4.3,10.35v29.9H94.36V425.6c0-2.31-1.16-5.1-6.2-5.1-9.64,0-20.42,4.64-21.45,5.1h-.09l-7,3.18v-43h9.86M59.53,435.4l11.18,9.93-11.18,9.93V435.4m56.86-82.56H44.88A27,27,0,0,0,18,379.78v81.43A27,27,0,0,0,41.53,488v7.38l8.07-7.18h66.79a27,27,0,0,0,26.94-26.94V379.78a27,27,0,0,0-26.94-26.94Z"/><path class="cls-2" d="M110.39,374.84a8.94,8.94,0,0,1,8.94,8.94h0v81.43a8.94,8.94,0,0,1-8.94,8.94H38.88A8.93,8.93,0,0,1,30,465.21h0V383.78a9,9,0,0,1,8.93-8.94Zm0,5H38.88a4,4,0,0,0-4,4h0v81.43a4,4,0,0,0,4,4h71.51a4,4,0,0,0,4-4h0V383.78A4,4,0,0,0,110.39,379.8ZM53.53,439.4l11.18,9.93-11.18,9.93Zm9.93-49.67V418a63.13,63.13,0,0,1,18.66-3.35,15.93,15.93,0,0,1,11.81,4.43,15.61,15.61,0,0,1,4.3,10.35v29.9H88.36V429.6c0-2.31-1.16-5.1-6.2-5.1-9.64,0-20.42,4.64-21.45,5.1h-.09l-7,3.18v-43Zm34.77,0a29.1,29.1,0,0,1-7.46,16.15H80.84a38.54,38.54,0,0,0,7.52-16.15h9.87Z"/><g class="cls-3"><path class="cls-4" d="M468.44,3h0A28.64,28.64,0,0,1,497,31.56V468.44A28.64,28.64,0,0,1,468.44,497H31.56A28.64,28.64,0,0,1,3,468.44V31.56A28.64,28.64,0,0,1,31.56,3H468.44m0-3H31.56A31.6,31.6,0,0,0,0,31.56V468.44A31.6,31.6,0,0,0,31.56,500H468.44A31.6,31.6,0,0,0,500,468.44V31.56A31.6,31.6,0,0,0,468.44,0Z"/></g></svg>