<svg id="Layer_1" data-name="Layer 1" xmlns="http://www.w3.org/2000/svg" xmlns:xlink="http://www.w3.org/1999/xlink" viewBox="0 0 500 500"><defs><style>.cls-1{fill:none;}.cls-2{fill:#fff;}.cls-3{clip-path:url(#clip-path);}.cls-4{fill:#82c3e8;}.cls-5{fill:#83c2e8;}.cls-6{fill:#84c1e9;}.cls-7{fill:#85c0e9;}.cls-8{fill:#85bfea;}.cls-9{fill:#86beea;}.cls-10{fill:#87bdea;}.cls-11{fill:#88bceb;}.cls-12{fill:#89bbeb;}.cls-13{fill:#8abaeb;}.cls-14{fill:#8bb9ec;}.cls-15{fill:#8bb7ec;}.cls-16{fill:#8cb6ed;}.cls-17{fill:#8db5ed;}.cls-18{fill:#8eb4ed;}.cls-19{fill:#8fb3ee;}.cls-20{fill:#90b2ee;}.cls-21{fill:#91b1ee;}.cls-22{fill:#91b0ef;}.cls-23{fill:#92afef;}.cls-24{fill:#93aef0;}.cls-25{fill:#94adf0;}.cls-26{opacity:0.6;}.cls-27{fill:#cfd7e6;}.cls-28{fill:#8992c0;}.cls-29{fill:#302c2d;}</style><clipPath id="clip-path"><path class="cls-1" d="M66.53,411.25a2.34,2.34,0,0,1,.27,2,3.43,3.43,0,0,1-1.11,2.15,4.14,4.14,0,0,1-2.53.66H61.45l1-5.41,1.93,0A2.92,2.92,0,0,1,66.53,411.25Zm19.82-.73H84.42l-1,5.41h1.71a4.14,4.14,0,0,0,2.53-.66,3.4,3.4,0,0,0,1.11-2.15,2.34,2.34,0,0,0-.27-2A2.87,2.87,0,0,0,86.35,410.52Zm11.8,3.57c0,6.59-10.46,12-23.46,12.1S51.11,421,51.06,414.43s10.46-12,23.46-12.1S98.1,407.51,98.15,414.09Zm-29.05,1.1a5.73,5.73,0,0,0,.61-1.73,4,4,0,0,0-.7-3.58,4.52,4.52,0,0,0-3.57-1.25l-5.41,0L57.61,421.6l2.82,0,.64-3.44,2.41,0a8.34,8.34,0,0,0,2.62-.35A5,5,0,0,0,68,416.63,5.75,5.75,0,0,0,69.1,415.19ZM79,418l1.13-6a2.72,2.72,0,0,0-.55-2.65,4.87,4.87,0,0,0-3.25-.8l-2.48,0,.64-3.44-2.79,0L69.3,418.08l2.79,0,1.39-7.41h2.23a2,2,0,0,1,1.4.34,1.57,1.57,0,0,1,.15,1.33L76.19,418Zm12-8.28a4.49,4.49,0,0,0-3.57-1.26l-5.41,0-2.42,12.93,2.82,0L83,418l2.41,0a8.66,8.66,0,0,0,2.62-.36,4.85,4.85,0,0,0,1.87-1.13A6.13,6.13,0,0,0,91.06,415a5.89,5.89,0,0,0,.61-1.74A4,4,0,0,0,91,409.73Zm52.63-3.49a9.61,9.61,0,0,1,1.25,4.82,4,4,0,0,1-1.91,3.63,3.28,3.28,0,0,1-1.6.4,4.94,4.94,0,0,1-2.5-.76,9.65,9.65,0,0,1-3.36-3.68c-1.91-3.5-1.62-7.22.66-8.46a4.09,4.09,0,0,1,4.09.37A9.67,9.67,0,0,1,143.6,406.24Zm-2.79,1.57c.26.47.69.73,1,.58s.3-.66,0-1.13-.69-.73-1-.58S140.56,407.34,140.81,407.81Zm-4.49-.63a3.25,3.25,0,0,1,1.86-2.48,2.72,2.72,0,0,1,1.44-.15l-.41-.28a3,3,0,0,0-1.48-.48,1.34,1.34,0,0,0-.64.15C136.36,404.34,136,405.6,136.32,407.18Zm-13.95,17.59s-.94-.16-2.41-3.61a59.32,59.32,0,0,1-3.78-17.64c-.46-7.39.61-12.83,3-15.32a1,1,0,0,0,0-1.4,1,1,0,0,0-1.41,0c-6.27,6.49-3.32,26.43.37,35.12,1.38,3.24,2.76,4.82,4.24,4.82a1,1,0,1,0,0-2Zm13.73-25.12a1,1,0,0,0-1.21-.72c-4.06,1-4.27,6.05-4.28,6.27a1,1,0,0,0,1,1h0a1,1,0,0,0,1-1s.16-3.75,2.78-4.41A1,1,0,0,0,136.1,399.65Zm24.61,47.13a112.16,112.16,0,0,1-4.73,25.8c-.33,2.43-6.72,2.56-8,2.56s-8-.13-8-2.76a1.6,1.6,0,0,1,.38-1c.5-3.83,3-25.68-3.87-33.74a7.85,7.85,0,0,0-6.08-2.94,9,9,0,0,0-6.61,2.68c-3.59,3.42-6.39,10.22-8.08,19.66a110,110,0,0,0-1.57,15,1.14,1.14,0,0,1,.07.41c0,2.28-6.91,2.76-12.71,2.76s-12.38-.46-12.69-2.61a187.27,187.27,0,0,1-6.26-24.31c-6,1.53-12.66.43-15.25-.11-1.5,12-3.64,21.57-4.21,24a1.36,1.36,0,0,1,0,.21c0,2.28-7,2.76-12.85,2.76s-12.74-.47-12.84-2.71c-1.6-3.74-17.24-41.35-9.8-65.51a13.07,13.07,0,0,0-2.89,4.69c-.66,1.82-2.36,12.83-2.93,22.82a13.12,13.12,0,0,1,2.93,9.83,1,1,0,0,1-1.77.53c-.3-.37-.58-.74-.83-1.09a20.5,20.5,0,0,1-.83,4.08,1,1,0,0,1-.67.67,1,1,0,0,1-.92-.2,6.38,6.38,0,0,1-1.85-3.51l-1.12,4a1,1,0,0,1-1,.73h0a1,1,0,0,1-1-.73c-1.86-6.56,2.07-13.87,2.24-14.18a1.25,1.25,0,0,1,.16-.22c.46-17.48,3.43-28.92,8.84-34a9.43,9.43,0,0,1,6.25-2.78,25.05,25.05,0,0,1,3.45-3.74c18-15.94,40.3-12.61,56.59-10.18l3.18.47c1.55.22,4,.68,6.55,1.16,3.13.59,6.35,1.19,8.36,1.45,1.44-3.57,3.54-6,6.36-6.29,4.22-.43,7.13,4.27,8.66,7.61,9.18,2.7,16.44,7,22.17,13.27C157.35,411.89,161.89,427.63,160.71,446.78ZM17.46,438.54a22.1,22.1,0,0,0-.81,2.87ZM146.1,402.6a44.64,44.64,0,0,0-19.74-12.24c.16.44.25.74.27.81a1,1,0,1,1-1.91.57,23.76,23.76,0,0,0-.85-2.31.94.94,0,0,1-.23-.53c-1.4-3.09-3.8-6.84-6.7-6.55-4.38.45-7.49,10.33-7.06,22.5.63,18.33,7.43,26.74,13.89,26.94a1,1,0,0,1,0,2h0c-10.26-.33-15.34-14.74-15.83-28.87a52.12,52.12,0,0,1,1.81-16.34c-2.08-.29-5.1-.86-8-1.41-2.55-.48-5-.93-6.47-1.15L92,385.55c-16.79-2.51-37.68-5.62-55,9.7a23.92,23.92,0,0,0-3.47,3.83,1,1,0,0,1-.84.41,7.34,7.34,0,0,0-5.34,2.24c-3.49,3.3-7.75,11.74-8.23,33.3a1,1,0,0,1-.61.89c-.21.44-.55,1.18-.9,2.13a1,1,0,0,1,1-.46,1,1,0,0,1,.8,1.08,18.08,18.08,0,0,0,.42,6.2,12.59,12.59,0,0,0,0-5.23,1,1,0,0,1,.68-1.19,1,1,0,0,1,1.23.61,13.51,13.51,0,0,0,.74,1.62A10.92,10.92,0,0,0,20.44,436a.94.94,0,0,1-.46-.27,1,1,0,0,1-.27-.74c.51-9.86,2.26-21.78,3.08-24a14.34,14.34,0,0,1,6.37-7.75,1,1,0,0,1,1.15.12,1,1,0,0,1,.26,1.13c-10.06,23.77,7.94,65.68,8.71,67.45a.88.88,0,0,1,0,.15c.92.44,4.62,1.13,10.86,1.13S60,472.47,61,472a.13.13,0,0,1,0-.06,247.14,247.14,0,0,0,4.36-25.16,1,1,0,0,1,1.24-.85c.1,0,9.16,2.36,16.36.09a1,1,0,0,1,1.28.79A181.64,181.64,0,0,0,90.64,472l0,.07c.83.44,4.5,1.15,10.76,1.15,6,0,9.62-.65,10.65-1.09.08-3.2,1-27.41,10.27-36.17a11,11,0,0,1,8-3.23,10.36,10.36,0,0,1,2.77.44,10.07,10.07,0,0,1-.66-5.4l-.07.09a1,1,0,0,1-.8.4,1,1,0,0,1-.6-.2,1,1,0,0,1-.2-1.4,7.36,7.36,0,0,1,5.51-2.7,1,1,0,0,1,0,2,5.91,5.91,0,0,0-1.42.24,8.15,8.15,0,0,0,2.65,9.51,1,1,0,0,1,.35.63l0,0c7.5,8.82,4.89,31.23,4.29,35.63a.81.81,0,0,1-.11.32,15.53,15.53,0,0,0,5.84.86c3.45,0,5.61-.63,6.08-1l0-.1C154.21,471.61,168.88,427.38,146.1,402.6Z"/></clipPath></defs><title>php-selfie</title><path class="cls-2" d="M468.44,0H31.56A31.6,31.6,0,0,0,0,31.56V468.44A31.6,31.6,0,0,0,31.56,500H468.44A31.6,31.6,0,0,0,500,468.44V31.56A31.6,31.6,0,0,0,468.44,0ZM457.93,42.07V373.54H42.07V42.07Z"/><path class="cls-2" d="M101.43,482.06c-6.62,0-17.56,0-19.36-7.72-.67-2.07-3.16-9.84-5.08-18.44-.44,0-.88,0-1.33,0-.88,0-1.73,0-2.55-.07-1.23,8.06-2.58,14.34-3.21,17.09-.18,2.82-1.85,7.13-10,8.46a62.76,62.76,0,0,1-9.74.61c-6.34,0-17.81,0-19.52-7.7a185.15,185.15,0,0,1-6.82-19.8,8.42,8.42,0,0,1-1.32.52,7.81,7.81,0,0,1-2.25.33,6.28,6.28,0,0,1-.75,0,7.79,7.79,0,0,1-3.81,1,7.93,7.93,0,0,1-7.59-5.73c-2.13-7.54.73-15,2.2-18.12.68-18.71,4.26-30.88,11-37.19a16.71,16.71,0,0,1,7.32-4.16,31.52,31.52,0,0,1,2.53-2.51c10.62-9.4,23.6-14,39.7-14a149.49,149.49,0,0,1,22.47,2.13c1.08.16,2.12.32,3.15.46,1.72.25,4.21.72,6.84,1.22l3.46.64a13.23,13.23,0,0,1,9.3-5.57q.61-.06,1.23-.06c6.33,0,10.48,4.71,12.9,8.82a52.72,52.72,0,0,1,22.45,14.31c11.08,12.05,16.25,29.55,15,50.62a120,120,0,0,1-4.92,27.07C161.84,478,158.52,482,148,482c-13.48,0-14.93-6.74-14.93-9.64a8.22,8.22,0,0,1,.59-3.07c1.44-12.28.43-23.85-2.44-27.22a1.08,1.08,0,0,0-1-.52,2.1,2.1,0,0,0-1.68.79c-.91.86-4,4.55-6,15.88a103.36,103.36,0,0,0-1.45,13.3,6.4,6.4,0,0,1,0,.88c0,2.75-1.29,7.59-9.94,9A61.33,61.33,0,0,1,101.43,482.06Z"/><path class="cls-2" d="M117.28,380.34c3.93,0,6.66,4.44,8.12,7.64,9.18,2.7,16.44,7,22.17,13.27,9.78,10.64,14.32,26.38,13.14,45.53a112.16,112.16,0,0,1-4.73,25.8c-.33,2.43-6.72,2.56-8,2.56s-8-.13-8-2.76a1.6,1.6,0,0,1,.38-1c.5-3.83,3-25.68-3.87-33.74a7.85,7.85,0,0,0-6.08-2.94h-.21a9,9,0,0,0-6.4,2.68c-3.59,3.42-6.39,10.22-8.08,19.66a110,110,0,0,0-1.57,15,1.14,1.14,0,0,1,.07.41c0,2.28-6.91,2.76-12.71,2.76s-12.38-.46-12.69-2.61a187.27,187.27,0,0,1-6.26-24.31,27.79,27.79,0,0,1-6.82.78,42.32,42.32,0,0,1-8.43-.89c-1.5,12-3.64,21.57-4.21,24a1.36,1.36,0,0,1,0,.21c0,2.28-7,2.76-12.85,2.76s-12.74-.47-12.84-2.71c-1.6-3.74-17.24-41.35-9.8-65.51a13.07,13.07,0,0,0-2.89,4.69c-.66,1.82-2.36,12.83-2.93,22.82a13.12,13.12,0,0,1,2.93,9.83,1,1,0,0,1-.71.86.92.92,0,0,1-.28.05,1,1,0,0,1-.78-.38c-.3-.37-.58-.74-.83-1.09a20.5,20.5,0,0,1-.83,4.08,1,1,0,0,1-.67.67,1.26,1.26,0,0,1-.28,0,1,1,0,0,1-.64-.24,6.38,6.38,0,0,1-1.85-3.51l-1.12,4a1,1,0,0,1-1,.73h0a1,1,0,0,1-1-.73c-1.86-6.56,2.07-13.87,2.24-14.18a1.25,1.25,0,0,1,.16-.22c.46-17.48,3.43-28.92,8.84-34a9.43,9.43,0,0,1,6.25-2.78,25.05,25.05,0,0,1,3.45-3.74c10.9-9.65,23.37-12.24,35.13-12.24a144.21,144.21,0,0,1,21.46,2.06l3.18.47c1.55.22,4,.68,6.55,1.16,3.13.59,6.35,1.19,8.36,1.45,1.44-3.57,3.54-6,6.36-6.29l.54,0m0-13.76a17.82,17.82,0,0,0-1.93.1,19.45,19.45,0,0,0-11.1,4.94c-2.59-.48-5-.94-6.82-1.2l-3.1-.46a158.13,158.13,0,0,0-23.5-2.21c-17.85,0-32.33,5.14-44.26,15.7-.59.52-1.17,1.07-1.73,1.63a24.25,24.25,0,0,0-8.29,5.19c-8,7.55-12.17,20.51-13,40.63-1.89,4.47-4.45,12.88-2,21.55A14.76,14.76,0,0,0,19.13,462.8c2.07,6.42,4.05,11.43,5.18,14.13,1.32,4.11,5,9.64,15.13,11.27a68.1,68.1,0,0,0,10.75.69,69.15,69.15,0,0,0,10.85-.7,24.47,24.47,0,0,0,6.88-2.07,15.64,15.64,0,0,0,8-8.55,15.71,15.71,0,0,0,8.5,8.85,25.12,25.12,0,0,0,6.55,1.86,68.34,68.34,0,0,0,10.5.66,67,67,0,0,0,10.78-.71,23.85,23.85,0,0,0,6.87-2.09A15.59,15.59,0,0,0,127,477.5a15.87,15.87,0,0,0,7,8.28,21.1,21.1,0,0,0,6.78,2.47,40,40,0,0,0,14.08.05c9.87-1.84,13.19-8,14.29-11.68a125,125,0,0,0,5.31-29c1.42-23-4.37-42.23-16.75-55.69a58.74,58.74,0,0,0-22.95-15.33c-5.92-8.59-13.23-10-17.47-10Z"/><g class="cls-3"><rect class="cls-4" x="17.63" y="379.93" width="3.3" height="93.26"/><rect class="cls-5" x="20.92" y="379.93" width="6.67" height="93.26"/><rect class="cls-6" x="27.59" y="379.93" width="6.67" height="93.26"/><rect class="cls-7" x="34.25" y="379.93" width="6.67" height="93.26"/><rect class="cls-8" x="40.92" y="379.93" width="6.67" height="93.26"/><rect class="cls-9" x="47.59" y="379.93" width="6.67" height="93.26"/><rect class="cls-10" x="54.25" y="379.93" width="6.67" height="93.26"/><rect class="cls-11" x="60.92" y="379.93" width="6.67" height="93.26"/><rect class="cls-12" x="67.58" y="379.93" width="6.67" height="93.26"/><rect class="cls-13" x="74.25" y="379.93" width="6.67" height="93.26"/><rect class="cls-14" x="80.91" y="379.93" width="6.67" height="93.26"/><rect class="cls-15" x="87.58" y="379.93" width="6.67" height="93.26"/><rect class="cls-16" x="94.24" y="379.93" width="6.67" height="93.26"/><rect class="cls-17" x="100.91" y="379.93" width="6.67" height="93.26"/><rect class="cls-18" x="107.57" y="379.93" width="6.67" height="93.26"/><rect class="cls-19" x="114.24" y="379.93" width="6.67" height="93.26"/><rect class="cls-20" x="120.9" y="379.93" width="6.67" height="93.26"/><rect class="cls-21" x="127.57" y="379.93" width="6.67" height="93.26"/><rect class="cls-22" x="134.23" y="379.93" width="6.67" height="93.26"/><rect class="cls-23" x="140.9" y="379.93" width="6.67" height="93.26"/><rect class="cls-24" x="147.56" y="379.93" width="6.67" height="93.26"/><rect class="cls-25" x="154.23" y="379.93" width="6.67" height="93.26"/><rect class="cls-25" x="160.89" y="379.93" width="7.99" height="93.26"/><rect class="cls-4" x="16.65" y="438.54" width="0.81" height="2.87"/><rect class="cls-4" x="12.9" y="377.82" width="1.36" height="97.36"/><rect class="cls-4" x="14.26" y="377.82" width="6.67" height="97.36"/><rect class="cls-5" x="20.92" y="377.82" width="6.67" height="97.36"/><rect class="cls-6" x="27.59" y="377.82" width="6.67" height="97.36"/><rect class="cls-7" x="34.25" y="377.82" width="6.67" height="97.36"/><rect class="cls-8" x="40.92" y="377.82" width="6.67" height="97.36"/><rect class="cls-9" x="47.59" y="377.82" width="6.67" height="97.36"/><rect class="cls-10" x="54.25" y="377.82" width="6.67" height="97.36"/><rect class="cls-11" x="60.92" y="377.82" width="6.67" height="97.36"/><rect class="cls-12" x="67.58" y="377.82" width="6.67" height="97.36"/><rect class="cls-13" x="74.25" y="377.82" width="6.67" height="97.36"/><rect class="cls-14" x="80.91" y="377.82" width="6.67" height="97.36"/><rect class="cls-15" x="87.58" y="377.82" width="6.67" height="97.36"/><rect class="cls-16" x="94.24" y="377.82" width="6.67" height="97.36"/><rect class="cls-17" x="100.91" y="377.82" width="6.67" height="97.36"/><rect class="cls-18" x="107.57" y="377.82" width="6.67" height="97.36"/><rect class="cls-19" x="114.24" y="377.82" width="6.67" height="97.36"/><rect class="cls-20" x="120.9" y="377.82" width="6.67" height="97.36"/><rect class="cls-21" x="127.57" y="377.82" width="6.67" height="97.36"/><rect class="cls-22" x="134.23" y="377.82" width="6.67" height="97.36"/><rect class="cls-23" x="140.9" y="377.82" width="6.67" height="97.36"/><rect class="cls-24" x="147.56" y="377.82" width="6.67" height="97.36"/><rect class="cls-25" x="154.23" y="377.82" width="6.67" height="97.36"/><rect class="cls-25" x="160.89" y="377.82" width="1" height="97.36"/><rect class="cls-21" x="130.59" y="398.8" width="3.64" height="7.43"/><rect class="cls-22" x="134.23" y="398.8" width="2" height="7.43"/><rect class="cls-18" x="111.49" y="386.41" width="2.74" height="40.34"/><rect class="cls-19" x="114.24" y="386.41" width="6.67" height="40.34"/><rect class="cls-20" x="120.9" y="386.41" width="2.47" height="40.34"/><rect class="cls-22" x="136.03" y="403.79" width="3.59" height="3.38"/><rect class="cls-22" x="140.56" y="406.53" width="0.34" height="2.01"/><rect class="cls-23" x="140.9" y="406.53" width="1.18" height="2.01"/><rect class="cls-21" x="133.57" y="401.56" width="0.66" height="13.54"/><rect class="cls-22" x="134.23" y="401.56" width="6.67" height="13.54"/><rect class="cls-23" x="140.9" y="401.56" width="4.01" height="13.54"/><rect class="cls-13" x="79.57" y="408.46" width="1.34" height="12.98"/><rect class="cls-14" x="80.91" y="408.46" width="6.67" height="12.98"/><rect class="cls-15" x="87.58" y="408.46" width="4.38" height="12.98"/><rect class="cls-12" x="69.3" y="405.13" width="4.95" height="12.95"/><rect class="cls-13" x="74.25" y="405.13" width="6.13" height="12.95"/><rect class="cls-10" x="57.61" y="408.62" width="3.3" height="12.98"/><rect class="cls-11" x="60.92" y="408.62" width="6.67" height="12.98"/><rect class="cls-12" x="67.58" y="408.62" width="2.42" height="12.98"/><rect class="cls-9" x="51.01" y="402.24" width="3.24" height="24.05"/><rect class="cls-10" x="54.25" y="402.24" width="6.67" height="24.05"/><rect class="cls-11" x="60.92" y="402.24" width="6.67" height="24.05"/><rect class="cls-12" x="67.58" y="402.24" width="6.67" height="24.05"/><rect class="cls-13" x="74.25" y="402.24" width="6.67" height="24.05"/><rect class="cls-14" x="80.91" y="402.24" width="6.67" height="24.05"/><rect class="cls-15" x="87.58" y="402.24" width="6.67" height="24.05"/><rect class="cls-16" x="94.24" y="402.24" width="3.95" height="24.05"/><rect class="cls-14" x="83.41" y="410.51" width="4.17" height="5.43"/><rect class="cls-15" x="87.58" y="410.51" width="1.36" height="5.43"/><rect class="cls-11" x="61.45" y="410.67" width="5.53" height="5.43"/></g><g class="cls-26"><path class="cls-27" d="M146.83,401.4c-6.7-7.29-14.76-11-22.16-13.13-1.35-3.12-4-7.82-7.83-7.44-2.5.26-4.45,2.7-5.8,6.38H111c-3.37-.34-12-2.18-15.64-2.71-16.76-2.41-40.15-7.19-59,9.48a23.48,23.48,0,0,0-3.61,4c-4.08-.15-13.86,3-14.61,36.51h-.26s-3.93,7.18-2.16,13.43L18.48,438s-.71,6.79,1.8,8.91a15.55,15.55,0,0,0,.57-8.08,17.39,17.39,0,0,0,2.82,4.76,12.16,12.16,0,0,0-2.75-9.15H20.7c.53-10.06,2.27-21.68,3-23.75a13.27,13.27,0,0,1,5.92-7.23c-10.19,24.07,7.65,65.78,8.72,68.23a.23.23,0,0,0,0,.11c0,1,5.31,1.76,11.85,1.76S62,472.81,62,471.84a.34.34,0,0,0,0-.17,243.74,243.74,0,0,0,4.38-25.27s9.33,2.46,16.91.07a182,182,0,0,0,6.45,25.38h0v0c0,1,5.24,1.76,11.7,1.76s11.71-.79,11.71-1.76a.32.32,0,0,0-.07-.2c.07-2.67,1.27-38.94,17.29-38.52,15.47.4,11.5,33.52,10.87,38.14a.7.7,0,0,0-.33.54c0,1,3.15,1.76,7,1.76s7.05-.79,7.05-1.76C155,471.85,170.29,426.92,146.83,401.4Z"/></g><ellipse class="cls-2" cx="74.6" cy="413.81" rx="21.55" ry="10.88"/><path class="cls-28" d="M64.39,410.67l-1.93,0-1,5.41h1.71a4.14,4.14,0,0,0,2.53-.66,3.43,3.43,0,0,0,1.11-2.15,2.34,2.34,0,0,0-.27-2A2.92,2.92,0,0,0,64.39,410.67Z"/><path class="cls-28" d="M86.35,410.52H84.42l-1,5.41h1.71a4.14,4.14,0,0,0,2.53-.66,3.4,3.4,0,0,0,1.11-2.15,2.34,2.34,0,0,0-.27-2A2.87,2.87,0,0,0,86.35,410.52Z"/><path class="cls-28" d="M74.52,402.33c-13,.09-23.51,5.51-23.46,12.1s10.63,11.86,23.63,11.76,23.5-5.51,23.46-12.1S87.52,402.24,74.52,402.33ZM68,416.63a5,5,0,0,1-1.87,1.14,8.34,8.34,0,0,1-2.62.35l-2.41,0-.64,3.44-2.82,0L60,408.67l5.41,0A4.52,4.52,0,0,1,69,409.88a4,4,0,0,1,.7,3.58A5.64,5.64,0,0,1,68,416.63Zm8.22,1.4,1.07-5.72a1.57,1.57,0,0,0-.15-1.33,2,2,0,0,0-1.4-.34H73.48l-1.39,7.41-2.79,0,2.42-12.93,2.79,0-.64,3.44,2.48,0a4.87,4.87,0,0,1,3.25.8,2.72,2.72,0,0,1,.55,2.65L79,418Zm15.48-4.73a5.56,5.56,0,0,1-1.75,3.18,4.74,4.74,0,0,1-1.86,1.13,8.61,8.61,0,0,1-2.62.36L83,418l-.64,3.43-2.82,0L82,408.51l5.41,0A4.49,4.49,0,0,1,91,409.73,4,4,0,0,1,91.67,413.3Z"/><path class="cls-29" d="M123.74,433.68h0c-10.19-.32-15.24-14.68-15.72-28.77-.39-11.3,2.18-23.77,8.76-24.44,6.29-.66,9.64,10.26,9.78,10.73a.89.89,0,1,1-1.71.51c-.84-2.77-3.88-9.84-7.89-9.46-4.51.46-7.59,10.17-7.16,22.6.64,18.4,7.49,26.84,14,27a.89.89,0,0,1,0,1.78Z"/><ellipse class="cls-2" cx="139.54" cy="408.44" rx="3.62" ry="6.12" transform="translate(-178.19 116.31) rotate(-28.54)"/><path class="cls-29" d="M141.35,415c-2,0-4.3-1.67-5.78-4.39a9.42,9.42,0,0,1-1.24-4.77,3.6,3.6,0,0,1,5.85-3.18,9.57,9.57,0,0,1,3.33,3.63c1.88,3.46,1.61,7.11-.62,8.33A3.31,3.31,0,0,1,141.35,415Zm-3.62-11.3a1.44,1.44,0,0,0-.69.17,2.32,2.32,0,0,0-.93,2,7.93,7.93,0,0,0,1,3.85c1.47,2.7,3.76,3.9,4.9,3.28s1.37-3.19-.1-5.89h0a7.82,7.82,0,0,0-2.68-2.95A3,3,0,0,0,137.73,403.69Z"/><path class="cls-29" d="M143.42,408c-1-2.59-3.39-4.08-5.24-3.34s-2.53,3.45-1.49,6,3.38,4.08,5.24,3.34S144.45,410.63,143.42,408Zm-1.64.35c-.28.15-.71-.11-1-.58s-.23-1,0-1.13.72.11,1,.58S142.06,408.24,141.78,408.39Z"/><path class="cls-29" d="M122.37,426.66c-1.43,0-2.79-1.56-4.15-4.76-3.68-8.67-6.62-28.55-.39-35a.89.89,0,0,1,1.29,1.24c-5.27,5.46-3.18,23.83.75,33.07,1.28,3,2.24,3.67,2.5,3.67a.9.9,0,1,1,0,1.79Z"/><path class="cls-29" d="M131.61,406.13h0a.89.89,0,0,1-.86-.92c0-.21.22-5.17,4.21-6.17a.89.89,0,1,1,.43,1.73c-2.69.68-2.85,4.46-2.85,4.5A.89.89,0,0,1,131.61,406.13Z"/><path class="cls-29" d="M136.93,437.34a.88.88,0,0,1-.57-.2,10.18,10.18,0,0,1-3-12.09.89.89,0,0,1,1.61.78,8.28,8.28,0,0,0,2.54,9.93.89.89,0,0,1,.13,1.26A.92.92,0,0,1,136.93,437.34Z"/><path class="cls-29" d="M131.62,428.13a.9.9,0,0,1-.72-1.43,7.27,7.27,0,0,1,5.43-2.66.9.9,0,0,1,0,1.79,5.53,5.53,0,0,0-4,1.94A.89.89,0,0,1,131.62,428.13Z"/><path class="cls-29" d="M101.43,475.08c-4.61,0-12.29-.34-12.59-2.53a188.93,188.93,0,0,1-6.28-24.41c-6.12,1.59-12.9.42-15.42-.12-1.5,12.07-3.66,21.72-4.22,24.13a1.5,1.5,0,0,1,0,.22c0,2.31-8,2.66-12.75,2.66s-12.69-.35-12.74-2.64c-1.57-3.66-17.41-41.7-9.68-65.85a13.1,13.1,0,0,0-3.2,5c-.67,1.82-2.37,12.88-2.94,22.89a13.07,13.07,0,0,1,2.93,9.79.91.91,0,0,1-.64.78.9.9,0,0,1-1-.3c-.37-.46-.69-.9-1-1.32a21.28,21.28,0,0,1-.84,4.34.92.92,0,0,1-.61.6.87.87,0,0,1-.83-.18,6.68,6.68,0,0,1-1.9-3.85l-1.22,4.37a.89.89,0,0,1-.86.65h0a.89.89,0,0,1-.86-.65c-1.84-6.52,2.07-13.8,2.24-14.1a1.37,1.37,0,0,1,.17-.23c.46-17.47,3.42-28.9,8.81-34a9.29,9.29,0,0,1,6.23-2.76,25.89,25.89,0,0,1,3.46-3.77c18-15.9,40.25-12.58,56.52-10.15l3.17.47c1.56.22,4,.68,6.56,1.16,3.51.66,7.13,1.34,9,1.53a.89.89,0,0,1,.8,1,.86.86,0,0,1-1,.8c-2-.19-5.65-.88-9.19-1.55-2.56-.48-5-.93-6.48-1.15L92,385.45c-16.8-2.51-37.72-5.63-55.06,9.72A24.12,24.12,0,0,0,33.47,399a.89.89,0,0,1-.75.37,7.44,7.44,0,0,0-5.42,2.27C23.8,405,19.52,413.44,19,435a.89.89,0,0,1-.59.81,24.32,24.32,0,0,0-2.19,7.35l1.36-4.86a.89.89,0,0,1,1.75.33,17.62,17.62,0,0,0,.54,6.63,13.21,13.21,0,0,0,.07-5.68.9.9,0,0,1,1.71-.52,13.84,13.84,0,0,0,1,2.12,11.41,11.41,0,0,0-2.22-5.34.78.78,0,0,1-.43-.25.91.91,0,0,1-.25-.66c.52-9.86,2.26-21.76,3.08-24a14.23,14.23,0,0,1,6.32-7.7.89.89,0,0,1,1.27,1.12c-10.08,23.81,7.93,65.76,8.71,67.53a1.21,1.21,0,0,1,.05.18c.87.45,4.58,1.16,10.95,1.16s10-.69,10.91-1.14a.52.52,0,0,1,0-.11,241.28,241.28,0,0,0,4.36-25.17.86.86,0,0,1,.39-.63.9.9,0,0,1,.73-.13c.09,0,9.18,2.36,16.41.09a.88.88,0,0,1,.74.09.89.89,0,0,1,.41.62A183.5,183.5,0,0,0,90.55,472l0,.1c.78.45,4.46,1.18,10.84,1.18,6.14,0,9.78-.68,10.75-1.12.07-2.92,1-27.36,10.24-36.17a11,11,0,0,1,8-3.2,9.77,9.77,0,0,1,7.47,3.61c7.47,8.78,4.86,31.15,4.26,35.55a.73.73,0,0,1-.14.38,15,15,0,0,0,6,.91c3.58,0,5.74-.67,6.17-1l0-.12c.15-.45,14.85-44.73-8-69.56-5.59-6.08-12.72-10.29-21.8-12.88a.9.9,0,0,1,.49-1.73c9.4,2.69,16.8,7.07,22.62,13.4,23,25,9.22,68.71,8.39,71.23-.3,2.37-6.64,2.49-7.93,2.49s-7.95-.13-7.95-2.66a1.46,1.46,0,0,1,.38-1c.49-3.75,3-25.74-3.89-33.86a8,8,0,0,0-6.16-3,8.94,8.94,0,0,0-6.68,2.71c-8.6,8.18-9.6,32-9.68,34.73a1.23,1.23,0,0,1,.07.39C114,474.73,106.14,475.08,101.43,475.08Zm10.92-2.34h0Zm-51.12-.07Zm-22-.07Z"/></svg>