<svg id="Layer_1" data-name="Layer 1" xmlns="http://www.w3.org/2000/svg" viewBox="0 0 500 500"><defs><style>.cls-1{fill:#fff;}.cls-2{fill:#ee0c21;}.cls-3{fill:#8a0018;}</style></defs><title>scala-selfie</title><path class="cls-1" d="M468.44,0H31.56A31.6,31.6,0,0,0,0,31.56V468.44A31.6,31.6,0,0,0,31.56,500H468.44A31.6,31.6,0,0,0,500,468.44V31.56A31.6,31.6,0,0,0,468.44,0ZM457.93,42.07V373.54H42.07V42.07Z"/><path class="cls-2" d="M29.14,492.17a8.51,8.51,0,0,1-8.5-8.31L20.06,458a8.4,8.4,0,0,1,1.07-4.34,8.58,8.58,0,0,1-1.27-4.29l-.59-25.87a8.5,8.5,0,0,1,1.08-4.34,8.36,8.36,0,0,1-1.27-4.29L18.49,389A8.49,8.49,0,0,1,26,380.35C55.48,377,84.08,371,90.52,367a8.52,8.52,0,0,1,7.78-5.53h.2a8.5,8.5,0,0,1,8.49,8.3l.59,25.88a9.45,9.45,0,0,1-1,4.32,9.62,9.62,0,0,1,1.15,4.34l.58,25.83a9.61,9.61,0,0,1-.94,4.34,9.63,9.63,0,0,1,1.14,4.28l.59,25.88c.12,5.64-4.61,10.5-14.08,14.44-12.56,5.23-34.42,9.63-65,13.08A7.73,7.73,0,0,1,29.14,492.17Z"/><path class="cls-1" d="M98.49,369.92l.59,25.87s0,1.77-4.7,4.42h0c4.86,2.43,4.9,4.2,4.9,4.2l.59,25.88s0,1.77-4.7,4.42c4.85,2.43,4.89,4.2,4.89,4.2h0l.59,25.87s.24,10.78-71.51,18.89l-.59-25.88s16.86-1.9,34.2-5.09c-17.47-2.4-34.39-3.53-34.39-3.53l-.59-25.88h0s16.85-1.9,34.2-5.09c-17.47-2.39-34.39-3.53-34.39-3.53h0L27,388.8s71.75-8.1,71.5-18.88M27.58,414.67h0M98.5,352.92h-.39a17,17,0,0,0-13.72,7.5c-3.32,1.35-11.8,4.11-31.17,7.43-14.71,2.52-28,4-28.14,4A17,17,0,0,0,10,389.18l.59,25.88a17.07,17.07,0,0,0,.65,4.3,16.64,16.64,0,0,0-.45,4.32l.58,25.87a17.38,17.38,0,0,0,.65,4.3,17.21,17.21,0,0,0-.45,4.33l.59,25.87a17,17,0,0,0,17,16.62,17.47,17.47,0,0,0,1.91-.11c31.35-3.54,54-8.14,67.29-13.68,5.93-2.47,10.33-5.24,13.46-8.48a19.6,19.6,0,0,0,5.84-14l-.58-25.88s0-.11,0-.16a18,18,0,0,0-.61-4.13,18.21,18.21,0,0,0,.42-4.32L116.27,404a17.29,17.29,0,0,0-.62-4.28,17.94,17.94,0,0,0,.43-4.35l-.59-25.88a17,17,0,0,0-17-16.61Z"/><path class="cls-3" d="M27.77,423.29l.59,25.88s72,4.83,72.29,15.61l-.59-25.87s-.24-10.78-72.29-15.62Z"/><path class="cls-3" d="M99.28,404.41s0-1.77-4.9-4.2c-1.22.68-60.09,13.7-66.8,14.46h0s72,4.84,72.29,15.62Z"/><path class="cls-2" d="M98.49,369.92C98.74,380.7,27,388.8,27,388.8l.59,25.87c71.75-8.1,71.5-18.88,71.5-18.88l-.59-25.87Z"/><path class="cls-1" d="M29.89,425.13c5.09-.61,19.69-2.48,34.11-5.19,19.24-3.63,28.75-6.94,33.33-9.86l.45,20c-.58,1.11-7,9.8-67.4,16.81Z"/><path class="cls-2" d="M99.28,404.41c.24,10.78-71.51,18.88-71.51,18.88l.59,25.88c71.75-8.1,71.51-18.88,71.51-18.88l-.59-25.88Z"/><path class="cls-1" d="M30.67,459.63c5.09-.61,19.69-2.48,34.11-5.19,19.24-3.63,28.75-6.94,33.33-9.86l.46,20c-.59,1.11-7,9.8-67.4,16.8Z"/><path class="cls-2" d="M100.06,438.91c.25,10.78-71.51,18.88-71.51,18.88l.59,25.88c71.75-8.11,71.51-18.89,71.51-18.89l-.59-25.87Z"/></svg>