<svg xmlns="http://www.w3.org/2000/svg" viewBox="0 0 500 500"><defs><style>.cls-1{fill:#fff;}.cls-2{fill:#430098;fill-rule:evenodd;}</style></defs><title>FFTT-sticker-heroku_frame-only</title><g id="ecosystem-2" data-name="ecosystem"><path class="cls-1" d="M468.44,0H31.56A31.6,31.6,0,0,0,0,31.56V468.44A31.6,31.6,0,0,0,31.56,500H468.44A31.6,31.6,0,0,0,500,468.44V31.56A31.6,31.6,0,0,0,468.44,0ZM457.93,42.07V373.54H42.07V42.07Z"/><path class="cls-2" d="M190.35,400.92a6.23,6.23,0,0,1,6.23,6.23h0V463.9a6.23,6.23,0,0,1-6.23,6.23H140.52a6.23,6.23,0,0,1-6.22-6.23h0V407.15a6.23,6.23,0,0,1,6.22-6.23h49.83Zm0,3.46H140.52a2.77,2.77,0,0,0-2.76,2.77h0V463.9a2.77,2.77,0,0,0,2.76,2.77h49.83a2.77,2.77,0,0,0,2.77-2.77h0V407.15a2.78,2.78,0,0,0-2.77-2.77Zm-39.62,41.53,7.79,6.92-7.79,6.92Zm6.92-34.61V431a44,44,0,0,1,13-2.34,11.11,11.11,0,0,1,8.23,3.09,10.87,10.87,0,0,1,3,7.21v20.84H175V439.08c0-1.61-.81-3.55-4.32-3.55-6.72,0-14.23,3.23-14.95,3.55l-.06,0-4.89,2.22v-30Zm142.74,11.25c5.67,0,11.57,3.6,11.57,12.24S306.06,447,300.39,447s-11.61-3.6-11.61-12.24S294.68,422.55,300.39,422.55Zm51.9.45v14.09c0,3.25,1,4.72,3.6,4.72s3.57-1.47,3.57-4.72V423h6.24v14.12c0,6.25-3,9.81-9.88,9.81s-9.91-3.56-9.91-9.81V423Zm-26.86,0v8.54l6.5-8.54h7.39l-7.93,9.31L340,446.59h-7.2l-5.58-9.44-1.81,2.11v7.33h-6.38V423Zm-69.81,0v5.29H245.17v3.83h7.46v5h-7.46v4.36h11v5.14H238.79V423Zm16.76,0c6.05,0,9.75,2,9.75,7.68,0,3.7-1.56,5.84-4.65,6.88l5,9h-6.76l-4.55-8.19h-1.76v8.19h-6.25V423Zm-56,0v8.76h7.84V423h6.37v23.58h-6.37v-9.53h-7.84v9.53H210V423Zm84,4.81c-3.34,0-5.22,2.65-5.22,7s1.88,7.14,5.22,7.14,5.2-2.8,5.2-7.14S303.7,427.81,300.38,427.81Zm-28.23.35h-2.74v5.39h2.74c2.62,0,3.77-.74,3.77-2.71S274.77,428.16,272.15,428.16ZM181.88,411.3a20.3,20.3,0,0,1-5.2,11.25h-6.92A26.84,26.84,0,0,0,175,411.3h6.93Z"/></g></svg>