<?xml version="1.0" encoding="utf-8"?>
<!-- Generator: Adobe Illustrator 24.0.3, SVG Export Plug-In . SVG Version: 6.00 Build 0)  -->
<svg version="1.1" id="bg" xmlns="http://www.w3.org/2000/svg" xmlns:xlink="http://www.w3.org/1999/xlink" x="0px" y="0px"
	 width="1347.1px" height="754.9px" viewBox="0 0 1347.1 754.9" style="enable-background:new 0 0 1347.1 754.9;"
	 xml:space="preserve">
<style type="text/css">
	.st0{opacity:0.5;fill:url(#SVGID_1_);enable-background:new    ;}
	.st1{fill:url(#SVGID_2_);}
	.st2{fill:#FFFFFF;}
	.st3{opacity:0.7;}
	.st4{fill:url(#SVGID_3_);}
	.st5{fill:url(#SVGID_4_);}
	.st6{fill:url(#SVGID_5_);}
	.st7{fill:url(#SVGID_6_);}
	.st8{opacity:0.3;fill:none;stroke:#7673C0;stroke-width:3;stroke-linecap:round;stroke-linejoin:round;enable-background:new    ;}
	.st9{opacity:0.5;fill:url(#SVGID_7_);enable-background:new    ;}
	
		.st10{opacity:0.3;fill:none;stroke:#7673C0;stroke-width:2;stroke-linecap:round;stroke-linejoin:round;enable-background:new    ;}
	
		.st11{opacity:0.5;fill:none;stroke:url(#SVGID_8_);stroke-width:3;stroke-linecap:round;stroke-linejoin:round;enable-background:new    ;}
	.st12{fill:none;stroke:url(#SVGID_9_);stroke-width:3.98;stroke-linecap:round;stroke-linejoin:round;}
	.st13{fill:none;stroke:url(#SVGID_10_);stroke-width:4;stroke-linecap:round;stroke-linejoin:round;}
	
		.st14{opacity:0.8;fill:none;stroke:url(#SVGID_11_);stroke-width:3;stroke-linecap:round;stroke-linejoin:round;enable-background:new    ;}
	.st15{fill:none;stroke:url(#SVGID_12_);stroke-width:3.98;stroke-linecap:round;stroke-linejoin:round;}
	.st16{fill:none;stroke:url(#SVGID_13_);stroke-width:3.98;stroke-linecap:round;stroke-linejoin:round;}
</style>
<title>Artboard 1 copy 4</title>
<linearGradient id="SVGID_1_" gradientUnits="userSpaceOnUse" x1="400.1664" y1="984.6279" x2="946.0636" y2="39.1061" gradientTransform="matrix(1 0 0 -1 0 754.48)">
	<stop  offset="0" style="stop-color:#42AECC"/>
	<stop  offset="0.5" style="stop-color:#8A96E9"/>
	<stop  offset="1" style="stop-color:#9D70D0"/>
</linearGradient>
<path class="st0" d="M144.4,468.8v-0.1l0,0C144.4,468.7,144.4,468.7,144.4,468.8z M1344.7,0v485.2H1.5V0H1344.7z"/>
<linearGradient id="SVGID_2_" gradientUnits="userSpaceOnUse" x1="329.2421" y1="545.3497" x2="1017.9119" y2="-275.3757" gradientTransform="matrix(1 0 0 -1 0 754.48)">
	<stop  offset="0" style="stop-color:#42AECC"/>
	<stop  offset="0.5" style="stop-color:#8A96E9"/>
	<stop  offset="1" style="stop-color:#9D70D0"/>
</linearGradient>
<path class="st1" d="M1.5,484.1v270.8h1344.1V484.1H1.5z"/>
<g id="white_masking">
	<path class="st2" d="M1015.5,183.8H349c-9.3,0-16.8,7.5-16.8,16.8l7.7,287.4l0,0l4.2,125.9c0.1,2.2,0.8,4.3,2,6.1v11.4
		c0,3.9,3.1,7,7,7h658.1c3.9,0,7-3.1,7-7v-11.1c1.3-1.9,2.1-4.1,2.2-6.5l3.4-125.8l0,0l8.6-287.4
		C1032.3,191.4,1024.8,183.8,1015.5,183.8z"/>
	<path class="st2" d="M1223.6,498.8c-2.3-2-8.1-5.7-15.2-9.7h-2c-13-7-29.7-14.5-38.9-14.5h-75.5c-16.4,0-30.4,3.9-38.9,14.5h-0.9
		c-5,6.8-7.8,16.1-7.8,28.7l0,0c0,7.4,40.8,32.3,48.5,32.3h138.6c7.7,0,14-6,14-13.5l0,0C1245.4,522.8,1233.5,507.5,1223.6,498.8z"
		/>
	<path class="st2" d="M314.5,383.4H154.9c-1.2,0-2.1,0.9-2.1,2.1v15.8c-35.1,0.6-63.4,32.3-63.4,71.3c0,5.2,0.5,10.3,1.5,15.4h0.2
		c6.7,31.1,31.7,54.2,61.6,54.8v2.5c0,7.7,6.3,14,14,14h2.8v2.8c0,3.9,3.1,7,7,7h116.2c3.9,0,7-3.1,7-7v-2.8h2.8c7.7,0,14-6.3,14-14
		V385.5C316.5,384.4,315.6,383.5,314.5,383.4z M152.8,488v27.8c-16-0.4-29.7-11.3-35.8-26.7h-0.4c-1.9-5.3-2.9-10.9-2.9-16.5
		c0-24.2,17.4-43.8,39.1-44.4V488z"/>
</g>
<g id="ecosystem">
	<g class="st3">
		
			<linearGradient id="SVGID_3_" gradientUnits="userSpaceOnUse" x1="651.8" y1="350.839" x2="713.4" y2="350.839" gradientTransform="matrix(1 0 0 -1 0 754.48)">
			<stop  offset="0" style="stop-color:#93AFF0"/>
			<stop  offset="1" style="stop-color:#9EA2F6"/>
		</linearGradient>
		<path class="st4" d="M707.2,369.4H658c-3.4,0-6.2,2.8-6.2,6.2c0,0,0,0,0,0v56.1c0,3.4,2.8,6.2,6.2,6.2h49.3c3.4,0,6.1-2.8,6.2-6.2
			v-56.1C713.4,372.2,710.6,369.4,707.2,369.4C707.2,369.4,707.2,369.4,707.2,369.4 M707.2,434.4H658c-1.5,0-2.7-1.2-2.7-2.7v-56.1
			c0-1.5,1.2-2.7,2.7-2.7h49.3c1.5,0,2.7,1.2,2.7,2.7v56.1C710,433.2,708.8,434.4,707.2,434.4L707.2,434.4z"/>
		
			<linearGradient id="SVGID_4_" gradientUnits="userSpaceOnUse" x1="667.2" y1="333.6925" x2="674.9" y2="333.6925" gradientTransform="matrix(1 0 0 -1 0 754.48)">
			<stop  offset="0" style="stop-color:#93AFF0"/>
			<stop  offset="1" style="stop-color:#9EA2F6"/>
		</linearGradient>
		<polygon class="st5" points="667.2,427.6 674.9,420.8 667.2,414 		"/>
		
			<linearGradient id="SVGID_5_" gradientUnits="userSpaceOnUse" x1="667.2" y1="350.839" x2="697.657" y2="350.839" gradientTransform="matrix(1 0 0 -1 0 754.48)">
			<stop  offset="0" style="stop-color:#93AFF0"/>
			<stop  offset="1" style="stop-color:#9EA2F6"/>
		</linearGradient>
		<path class="st6" d="M695,399.9c-1.4-1.4-3.9-3-8.1-3c-4.4,0.1-8.7,0.9-12.8,2.3v-19.5h-6.8v29.6l4.8-2.2c0.1,0,7.9-3.5,14.8-3.5
			c3.5,0,4.2,1.9,4.3,3.5v20.5h6.5v-20.5c0-2.7-1.1-5.3-2.9-7.2"/>
		
			<linearGradient id="SVGID_6_" gradientUnits="userSpaceOnUse" x1="685.68" y1="369.1475" x2="697.986" y2="369.1475" gradientTransform="matrix(1 0 0 -1 0 754.48)">
			<stop  offset="0" style="stop-color:#93AFF0"/>
			<stop  offset="1" style="stop-color:#9EA2F6"/>
		</linearGradient>
		<path class="st7" d="M685.7,391h7.1c2.9-3.1,4.7-7.1,5.2-11.3h-7c-0.9,4.1-2.6,8-5.2,11.3"/>
	</g>
	<path class="st8" d="M990.3,255.8c-3.7-3.9-8.8-6.2-14.2-6.3c-0.5,0-0.9,0-1.4,0c-0.6-1.5-1.5-2.8-2.6-3.9
		c-2.4-2.6-5.7-4.2-9.3-4.4c-1.6-5-4.8-9.3-9.1-12.2c-11.1-7.7-26.3-5-34,6.1c-1,1.5-1.9,3.1-2.6,4.8l0,0c-3.7,0-7.4,1.1-10.4,3.3
		l0,0c-0.3,0.2-0.6,0.4-0.8,0.6l-0.3,0.2c-0.2,0.2-0.5,0.4-0.7,0.6l-0.2,0.2c-0.3,0.3-0.5,0.5-0.8,0.8l-0.2,0.2
		c-0.2,0.2-0.4,0.5-0.6,0.7l-0.2,0.2c-0.2,0.3-0.4,0.6-0.6,0.9l-0.3,0.4c-0.1,0.2-0.2,0.3-0.3,0.5c-0.6,0.9-1,1.8-1.4,2.8
		c-9.6,0.2-17.4,7.8-17.8,17.4c-0.2,4.7,1.6,9.3,4.9,12.8c3.3,3.5,7.9,5.6,12.7,5.7c2.5,0.1,5-0.4,7.3-1.3
		c6.2,6.7,16.4,7.8,23.9,2.6c4,2.5,8.6,3.9,13.3,4h0.8c6.7,0,13.2-2.5,18.1-7.1c1.4,1.1,3,1.9,4.6,2.6l0.3,0.1l0.9,0.3l0.7,0.2
		l0.4,0.1c0.3,0.1,0.7,0.2,1,0.3l0.3,0.1c0.4,0.1,0.7,0.1,1.1,0.2l0.3,0c0.4,0,0.7,0.1,1.1,0.1h0.3h0.6h0.3h0.4h0.3h0.1
		c3-0.1,5.9-0.8,8.6-2.1c0.2-0.1,0.3-0.2,0.5-0.3c6.3-3.3,10.3-9.8,10.6-16.9C995.9,264.7,994,259.6,990.3,255.8z"/>
	
		<linearGradient id="SVGID_7_" gradientUnits="userSpaceOnUse" x1="376.14" y1="525.756" x2="462.2424" y2="525.756" gradientTransform="matrix(1 0 0 -1 0 754.48)">
		<stop  offset="0" style="stop-color:#7EC7E6"/>
		<stop  offset="1" style="stop-color:#B28CFF"/>
	</linearGradient>
	<path class="st9" d="M376.1,235.2v-1.8h2.2v-5.6h-2.1v-1.8h4.3v7.4h2v1.8L376.1,235.2z M378.6,224.3c-0.2-0.1-0.4-0.3-0.5-0.5
		c-0.3-0.5-0.2-1.2,0.2-1.6c0.3-0.2,0.6-0.4,1-0.4c0.2,0,0.5,0.1,0.7,0.2c0.2,0.1,0.4,0.3,0.5,0.5c0.1,0.2,0.2,0.4,0.2,0.6
		c0,0.2-0.1,0.5-0.2,0.6c-0.1,0.2-0.3,0.4-0.5,0.5c-0.2,0.1-0.5,0.2-0.7,0.2C379.1,224.5,378.8,224.4,378.6,224.3L378.6,224.3z
		 M401.5,234.4l-8.6-5v-1.1l8.5-4.5v1.9l-6.1,3.1l6.2,3.5V234.4z M411.1,229.8c0.4,0.6,0.6,1.3,0.6,2c0,0.7-0.2,1.3-0.5,1.9
		c-0.3,0.6-0.8,1.1-1.4,1.4c-2,1-4.5,0.5-6-1.1l0.9-1.8l0,0l0,0c0.2,0.5,0.6,0.9,1.1,1.2c0.6,0.3,1.2,0.4,1.8,0.4
		c0.5,0,1-0.2,1.4-0.5c0.3-0.4,0.5-0.9,0.5-1.4c0-0.5-0.2-1.1-0.6-1.5c-0.5-0.4-1.2-0.5-1.9-0.5c-0.3,0-0.6,0-1,0.1V228h0.4
		c0.7,0.1,1.5-0.1,2.1-0.5c0.4-0.3,0.6-0.8,0.6-1.4c0-0.4-0.1-0.8-0.4-1.1c-0.3-0.3-0.7-0.5-1.2-0.4c-0.4,0-0.8,0.1-1.2,0.2
		c-0.4,0.2-0.8,0.5-1.2,0.8l-1.2-1.3c0.4-0.5,1-1,1.6-1.2c0.6-0.3,1.3-0.4,2-0.4c0.7,0,1.4,0.1,2,0.4c0.5,0.3,1,0.7,1.4,1.2
		c0.3,0.5,0.5,1.1,0.5,1.7c0,0.6-0.2,1.2-0.5,1.7c-0.3,0.4-0.7,0.8-1.2,1C410.3,228.9,410.8,229.3,411.1,229.8L411.1,229.8z
		 M404.7,232L404.7,232L404.7,232l0,0.1C404.7,232,404.6,232,404.7,232L404.7,232z M405,232.1L405,232.1
		C404.9,232.1,404.9,232.1,405,232.1l-0.2-0.1l0,0L405,232.1L405,232.1z M427.5,233.4c0.4-0.2,0.8-0.5,1.1-0.9l1.3,1.5
		c-0.5,0.5-1,1-1.7,1.2c-0.6,0.3-1.3,0.4-2,0.4c-0.8,0-1.7-0.2-2.4-0.6c-0.7-0.4-1.3-1-1.6-1.7c-0.8-1.6-0.8-3.4,0-4.9
		c0.4-0.7,0.9-1.3,1.7-1.8c0.7-0.4,1.6-0.7,2.4-0.6c0.7,0,1.4,0.2,2.1,0.5c0.6,0.3,1.2,0.7,1.5,1.3l-1.2,1.4l0,0l0,0
		c-0.2-0.4-0.6-0.8-1-1c-0.4-0.2-0.9-0.4-1.4-0.3c-0.4,0-0.9,0.1-1.2,0.4c-0.4,0.3-0.7,0.6-0.9,1.1c-0.2,0.5-0.3,1.1-0.3,1.6
		c0,0.5,0.1,1,0.3,1.5c0.2,0.4,0.5,0.8,0.8,1c0.4,0.2,0.8,0.4,1.2,0.3C426.7,233.6,427.1,233.5,427.5,233.4L427.5,233.4z M428.4,229
		L428.4,229c0,0,0.1,0,0.2,0.1l0,0L428.4,229L428.4,229z M428.8,229.2L428.8,229.2c0,0-0.1,0-0.1-0.1l0.1-0.1L428.8,229.2z
		 M434.4,234.9c-0.7-0.4-1.2-1-1.6-1.7c-0.4-0.8-0.6-1.7-0.6-2.5c0-0.8,0.2-1.7,0.6-2.4c0.4-0.7,0.9-1.3,1.6-1.7
		c1.3-0.8,3-0.8,4.4,0c0.7,0.4,1.2,1,1.6,1.7c0.4,0.7,0.6,1.6,0.6,2.4c0,0.9-0.2,1.7-0.6,2.5c-0.4,0.7-0.9,1.3-1.6,1.7
		C437.4,235.7,435.7,235.7,434.4,234.9L434.4,234.9z M437.7,233.4c0.3-0.3,0.6-0.7,0.7-1.1c0.2-0.5,0.3-1.1,0.3-1.6
		c0-0.6-0.1-1.1-0.3-1.6c-0.1-0.4-0.4-0.8-0.7-1c-0.3-0.2-0.7-0.4-1.1-0.4c-0.4,0-0.8,0.1-1.1,0.4c-0.3,0.3-0.6,0.6-0.7,1.1
		c-0.2,0.5-0.3,1.1-0.3,1.6c0,0.6,0.1,1.1,0.3,1.6c0.1,0.4,0.4,0.8,0.7,1.1c0.3,0.3,0.7,0.4,1.1,0.4
		C437,233.8,437.4,233.6,437.7,233.4L437.7,233.4z M445,235c-0.6-0.4-1.1-0.9-1.4-1.6c-0.7-1.7-0.7-3.6,0-5.2
		c0.3-0.7,0.8-1.3,1.4-1.7c0.6-0.4,1.2-0.6,1.9-0.6c0.4,0,0.8,0.1,1.1,0.3c0.4,0.2,0.7,0.4,1,0.7V222h2.4v0.2
		c-0.1,0.1-0.1,0.2-0.1,0.3c0,0.2,0,0.3,0,0.5l0,11.2c0,0.2,0,0.4,0,0.6c0,0.2,0.1,0.4,0.2,0.5h-2.1c-0.1-0.1-0.1-0.3-0.2-0.5
		c0-0.2,0-0.4,0-0.6c-0.2,0.4-0.5,0.8-0.9,1.1c-0.4,0.2-0.8,0.3-1.3,0.3C446.3,235.5,445.6,235.3,445,235L445,235z M449.1,230.5
		c0-0.7-0.1-1.4-0.4-2.1c-0.3-0.5-0.8-0.8-1.4-0.8c-0.6,0-1.2,0.3-1.5,0.9c-0.4,0.7-0.5,1.5-0.5,2.2c0,0.6,0.1,1.2,0.3,1.7
		c0.2,0.4,0.4,0.7,0.8,1c0.3,0.2,0.6,0.3,0.9,0.3C448.5,233.7,449.1,232.6,449.1,230.5L449.1,230.5z M456.2,234.9
		c-0.7-0.4-1.3-1-1.6-1.7c-0.4-0.8-0.6-1.7-0.6-2.5c0-0.9,0.2-1.8,0.6-2.6c0.3-0.7,0.9-1.3,1.5-1.7c0.7-0.4,1.4-0.6,2.2-0.6
		c0.7,0,1.4,0.2,2,0.5c0.6,0.4,1.1,0.9,1.4,1.5c0.4,0.8,0.5,1.6,0.5,2.4c0,0.2,0,0.4,0,0.7v0.3h-6c0,0.7,0.3,1.4,0.8,1.9
		c0.4,0.4,1,0.6,1.5,0.6c0.4,0,0.9-0.1,1.3-0.3c0.4-0.2,0.8-0.5,1.1-0.8l1.2,1.2c-0.8,1.1-2.1,1.7-3.5,1.6
		C457.8,235.5,456.9,235.3,456.2,234.9z M460,229.6c0-0.4-0.1-0.7-0.2-1.1c-0.1-0.3-0.4-0.6-0.6-0.8c-0.3-0.2-0.6-0.3-1-0.3
		c-0.5,0-1,0.2-1.3,0.6c-0.4,0.4-0.6,1-0.6,1.6H460z"/>
	<path class="st10" d="M361.9,228.7L361.9,228.7c0,7.4,5.9,13.3,13.2,13.3h88.1c7.3,0,13.2-5.9,13.2-13.2l0,0
		c0-7.3-5.9-13.2-13.2-13.2l-88.1-0.1C367.8,215.4,361.9,221.4,361.9,228.7z"/>
	
		<linearGradient id="SVGID_8_" gradientUnits="userSpaceOnUse" x1="791.077" y1="342.7809" x2="992.2682" y2="342.7809" gradientTransform="matrix(1 0 0 -1 0 754.48)">
		<stop  offset="0" style="stop-color:#8DB6ED"/>
		<stop  offset="0.91" style="stop-color:#B28CFF"/>
	</linearGradient>
	<path class="st11" d="M945.3,287.4h-0.7c-5.1-0.1-9.9-2.1-13.7-5.5c-4.7,5.6-13.1,6.4-18.7,1.6c-1.4-1.2-2.6-2.6-3.4-4.3
		c-2.5,1.9-5.5,2.9-8.6,2.8c-3.5-0.1-6.9-1.6-9.3-4.2c-2.4-2.5-3.6-5.8-3.5-9.2l0,0c0.4-7.3,6.6-12.9,13.9-12.6
		c0.9,0,1.8,0.2,2.7,0.4c0.6-6.8,6.3-11.9,13.1-11.9h0.4c1.1,0,2.1,0.2,3.2,0.5c2-10.5,12.1-17.4,22.5-15.4
		c8.3,1.6,14.6,8.3,15.6,16.7c3.4-1.1,7.1-0.2,9.6,2.4c1.6,1.7,2.5,3.9,2.4,6.2c5.6-1.7,11.7-0.1,15.8,4.1c2.7,2.9,4.2,6.7,4,10.6
		c-0.3,8.2-7.1,14.6-15.2,14.5h-0.5c-4.8-0.1-9.2-2.5-12-6.4C959.1,283.9,952.4,287.5,945.3,287.4z M945.9,254.1
		c0.7-1.2,0.9-2.7,0.5-4c-0.4-1.4-1.3-2.6-2.5-3.3c-3.5-2-7.9-0.8-10,2.7c-1.3,2.2-1.7,4.9-1,7.4c0.7,2.5,2.4,4.7,4.7,6
		c6.6,3.7,15,1.5,18.8-5c5.3-8.9,2.3-20.4-6.6-25.6c-0.1-0.1-0.3-0.2-0.4-0.2 M969,271c1.1,2.2,3.8,3,6,1.9c1.4-0.7,2.5-1.9,3-3.4
		c0.5-1.5,0.3-3.1-0.4-4.4c-2.1-3.9-6.8-5.4-10.7-3.4c-2.6,1.3-4.6,3.6-5.5,6.3c-0.9,2.7-0.6,5.7,0.7,8.2c3.9,7.4,13,10.3,20.5,6.5
		 M909.6,247.1c-5.8,4-7.3,12-3.3,17.9c0.1,0.1,0.1,0.2,0.2,0.3c3.1,4.2,9,5.2,13.3,2.2c3.1-2.1,3.9-6.4,1.7-9.5
		c0,0-0.1-0.1-0.1-0.1c-1.7-2.3-4.9-2.8-7.3-1.2c-1.8,1.2-2.2,3.6-1,5.4c0,0,0,0.1,0.1,0.1 M887.9,478.5l3.9-2.5
		c2-1.3,4.6-0.8,5.9,1.2c0.4,0.6,0.7,1.4,0.7,2.2v0.2c2.9,2.6,6.9,3.6,10.7,2.7c1.4,0.6,2.4,2,2.5,3.6v0.1c2.1-1.1,4.7-0.2,5.7,1.9
		c0.3,0.6,0.4,1.2,0.5,1.8 M887.5,483.5v-0.3c-3.5-0.8-6.4-3.2-7.8-6.5c-1.2-0.6-2.6-0.6-3.7,0l0,0c-1.3-1.7-3.8-2-5.5-0.7
		c-0.4,0.3-0.7,0.6-0.9,1l0,0.1c-1.9-1-4.3-0.3-5.3,1.6c-0.3,0.6-0.4,1.2-0.4,1.8 M878.2,542.1c0,0-0.1,0-0.1,0c-0.1,0-0.1,0-0.1,0
		c-0.1-0.1-0.1-0.1-0.1-0.2v-4.5c0-0.1,0.1-0.2,0.1-0.2c0.1-0.1,0.2-0.1,0.3,0l3.6,2.3c0.1,0.1,0.1,0.1,0.1,0.2
		c0,0.1-0.1,0.2-0.1,0.2L878.2,542.1z M878.7,545.6c5.4-3.2,5.3-3,5.7-3.4c1.1-0.8,5.1-3,5.1-4.3s-3.8-3.5-5.4-4.4l-19.7-10.9
		c0,0-6.5-3.2-6-10.8V505l-5.6-3.2 M858.7,504.9l5.7-3.1 M885.6,523.4l7.3-4.3c6.8-4,15.2-4.1,22.2-0.3l0.1,0.1
		c1.2,0.7,2.6,0.7,3.8,0l3.5-2l0.1,1c0.2,2.1,2.1,3.6,4.2,3.4c0.5-0.1,1.1-0.2,1.5-0.5l0.9-0.5v0.9c0,1.4,0.7,2.6,1.9,3.3
		c0.6,0.4,1.3,0.5,2,0.5c0.6,0,1.3-0.2,1.8-0.5l1.2-0.6c1.7,0.8,3.6,0.1,4.4-1.6c0.2-0.4,0.3-0.9,0.3-1.4v-0.5
		c1.5-0.9,2.1-2.9,1.2-4.4c-0.2-0.4-0.6-0.8-1-1.1c1.4-1.1,1.8-3.1,0.7-4.5c-0.3-0.4-0.6-0.7-1-0.9l-0.1-0.1c-1.2-0.8-2.6-1.1-3.9-1
		v-2.2c0-1.7-1.3-3-3-3c-0.5,0-1,0.1-1.5,0.4l-1.8,1v-2c0-1.7-1.3-3-3-3.1c-0.5,0-1.1,0.1-1.6,0.4l-1.7,1v-2.2c0-1.7-1.3-3-3-3
		c-0.5,0-1,0.1-1.4,0.4c-0.6,0.4-1.5,0.1-1.8-0.5c-0.1-0.2-0.2-0.4-0.2-0.6v-1.1 M865.1,484.2c-1.7-1.1-4-0.6-5.1,1.1
		c-0.3,0.5-0.6,1.1-0.6,1.8l-0.3-0.1c-1.8-1-4-0.4-5.1,1.4c-0.3,0.5-0.5,1.1-0.5,1.7l-0.9-0.5c-1.7-1-4-0.4-5,1.3
		c-0.3,0.6-0.5,1.2-0.5,1.8v1.1L846,493c-1.6-0.9-3.7-0.4-4.6,1.2c-0.3,0.4-0.4,0.9-0.5,1.4l-0.1,2l-1.9-0.3
		c-1.6-0.3-3.2,0.7-3.7,2.2 M917.4,510.4v-1.1c0-1.9-1.6-3.5-3.5-3.5c-0.6,0-1.3,0.2-1.8,0.5l-0.3,0.2l0-0.8
		c-0.1-1.9-1.8-3.4-3.7-3.3c-0.6,0-1.1,0.2-1.6,0.5l-0.9,0.6 M866.4,547.6c0.2,0,0.3,0.1,0.3,0.3v0c0,0.6-0.3,1.1-0.8,1.4l-3.3,1.9
		c-0.3,0.2-0.5,0.5-0.5,0.9l-0.1,4.5l2.2,1.3 M869.1,547.8l0.4,0.2c0.8,0.5,1.8,0.2,2.3-0.6c0.2-0.3,0.2-0.6,0.2-0.9v-0.3l0.2-0.1
		c0.5-0.3,0.9-0.9,0.8-1.5c0-0.6-0.3-1.2-0.8-1.5l-2.8-1.6v-0.2c0-0.9-0.7-1.7-1.7-1.7c-0.3,0-0.6,0.1-0.9,0.3l-0.2,0.1l-0.2-0.1
		c-0.8-0.5-1.8-0.3-2.3,0.5c-0.2,0.2-0.2,0.5-0.3,0.8l-1.4-0.8c-0.5-0.3-1.2-0.3-1.7,0l-1.3,0.8c0-0.9-0.8-1.7-1.7-1.6
		c-0.3,0-0.5,0.1-0.8,0.2l-0.3,0.2l-1.6-1c-0.5-0.3-1.2-0.3-1.7,0l-1.1,0.6c-0.5,0.3-0.9,0.9-0.9,1.5l0,1.9l-0.3,0.2
		c-0.8,0.5-1.1,1.5-0.6,2.3c0.2,0.3,0.4,0.5,0.6,0.6l0.2,0.1v0.3c0,0.9,0.8,1.7,1.7,1.7c0.3,0,0.6-0.1,0.9-0.2l0,0
		c0.1,0.9,0.9,1.6,1.8,1.5c0.3,0,0.5-0.1,0.7-0.3l2.4-1.4c0,0.9,0.8,1.7,1.7,1.7c0.3,0,0.5-0.1,0.8-0.2l0.4-0.2 M873.2,556.1l1.9,1
		c0.7,0.4,1.6,0.2,2-0.5c0.4-0.7,0.2-1.6-0.5-2l-0.5-0.3v-0.6c0-0.5-0.3-1-0.7-1.2c-0.4-0.3-1-0.3-1.4,0l-0.2,0.1v-0.2
		c0-0.8-0.6-1.5-1.4-1.5c-0.3,0-0.5,0.1-0.7,0.2l-0.5,0.3l-0.4-0.2c-0.7-0.4-1.6-0.2-2,0.5c-0.1,0.2-0.2,0.5-0.2,0.8v0.1l-1.4-0.8
		c-0.5-0.3-1-0.3-1.5,0c-0.7,0.4-0.9,1.3-0.5,2c0.1,0.2,0.3,0.4,0.5,0.5l0.5,0.3v0.5c0,0.5,0.3,1,0.7,1.3c0.4,0.3,1,0.3,1.4,0
		l0.6-0.3 M931.1,544.9c0,0,0.1,0,0.1,0c1.6-0.8,2.2-2.8,1.4-4.4c-0.2-0.5-0.6-0.9-1-1.2c1.5-0.9,2-3,1.1-4.5
		c-0.3-0.4-0.6-0.8-1.1-1.1l-0.4-0.2v-0.3c0-1.1-0.5-2-1.4-2.6c-0.9-0.6-2-0.6-2.9-0.1l-0.5,0.2c-0.1-1.6-1.4-2.9-3.1-2.8
		c-0.5,0-1,0.2-1.5,0.5v-0.4c0-1.6-1.3-3-3-3c-0.5,0-1.1,0.2-1.5,0.4h0l0,0c0-1.6-1.4-2.9-3-2.9c-0.6,0-1.2,0.2-1.7,0.6l-0.3,0.3
		l-0.1-0.1c-1.3-1-3.2-0.7-4.1,0.7c-0.3,0.4-0.5,0.9-0.5,1.4c-1.9,2.2-4.8,3.2-7.7,2.9c-0.9,0.5-1.6,1.4-1.7,2.5l-4.8-2.7
		 M851.8,508.6v-1.3c0-2-1.6-3.7-3.7-3.7c-0.6,0-1.3,0.2-1.8,0.5l-0.7,0.4v-0.1c0.1-2-1.5-3.7-3.5-3.8c-0.7,0-1.5,0.2-2.1,0.6
		l-0.8,0.5c-1.7-1.2-3.9-0.7-5.1,0.9c-0.4,0.6-0.6,1.3-0.7,2c-2.4,3-6.2,4.5-10,3.8c-1.4,0.7-2.2,2.1-2.2,3.7l-2,1.2
		c-1.3,0.7-1.7,2.4-1,3.6c0.3,0.4,0.6,0.8,1.1,1l1.7,0.9c0,0,0.1,0,0.1,0 M828.2,558c0-0.8,0.7-1.5,1.5-1.5h13.5
		c0.8,0,1.5,0.7,1.5,1.5v0.2c0,0.8-0.7,1.5-1.5,1.5h-13.5c-0.8,0-1.5-0.7-1.5-1.5V558z M835.4,578.3c0.2,0,0.3-0.1,0.3-0.3
		c0,0,0,0,0,0v-3.2c0-0.1-0.1-0.2-0.1-0.2c-0.1,0-0.2,0-0.3,0l-2.7,1.5c-0.1,0.1-0.2,0.2-0.2,0.4c0.1,0.1,0.2,0.2,0.4,0.2
		c0,0,0.1,0,0.1,0l2.3-1.3v2.7C835.1,578.1,835.2,578.3,835.4,578.3C835.4,578.3,835.4,578.3,835.4,578.3L835.4,578.3z M929.8,561.5
		h-11.7c-0.6,0-1,0.5-1,1c0,0,0,0,0,0v0.3c0,0.6,0.5,1,1,1c0,0,0,0,0,0h11.7c0.6,0,1-0.5,1-1v-0.3
		C930.8,562,930.4,561.5,929.8,561.5C929.8,561.5,929.8,561.5,929.8,561.5L929.8,561.5z M846.6,512.9c-1.7-1-3.9-0.5-4.9,1.1
		c-0.4,0.6-0.5,1.2-0.5,1.9l0,0c-1.8-0.8-3.9-0.1-4.7,1.7c-0.2,0.4-0.3,0.9-0.3,1.4l-0.3-0.2c-1.7-1-3.9-0.5-4.9,1.1
		c-0.4,0.6-0.5,1.2-0.5,1.9v0.4c-1.7-1-3.9-0.5-4.9,1.2c-0.3,0.6-0.5,1.2-0.5,1.9v0.3c0,0.1,0,0.2,0.1,0.2l2.2,1.3
		c2.2,1.3,4.9,1.4,7.1,0.1c4.4-2.6,9.9-2.6,14.3,0c1.1,0.6,2.3,1,3.6,1c1.2,0,2.4-0.3,3.4-0.9l2.1-1.1 M871.4,554.6
		c0,1.6-0.9,3.5-2.2,4.3l-1.9,1l0,0l0,0l0,0l0,0l0,0l0,0l-0.1,5.6 M867.2,559.9l2.8,1.6c0.8,0.5,1.3,1.3,1.3,2.3v6.5l1.2,0.8
		c0.7,0.5,1.2,1.3,1.2,2.2v5h0.1l2.1,1.2c0.4,0.2,0.9,0.2,1.3,0l2.1-1.2c0.1,0,0.2,0,0.3,0l2.1,1.2c0.4,0.2,0.9,0.2,1.3,0l2.1-1.2
		c0.1,0,0.2,0,0.3,0l2.1,1.2c0.4,0.2,0.9,0.2,1.4,0l2.1-1.2c0.1,0,0.2,0,0.3,0l2.1,1.2c0.4,0.2,0.9,0.2,1.3,0l2.1-1.2
		c0.1,0,0.2,0,0.3,0l2.1,1.2c0.4,0.2,0.9,0.2,1.3,0l0.9-0.5c0.9-0.5,1.9-0.5,2.8-0.1l1.6,0.8 M912.9,583.5l-1.1,0.6
		c-0.5,0.3-1.2,0.3-1.7,0l-2.6-1.5c-0.1-0.1-0.2-0.1-0.3,0l-2.6,1.5c-0.5,0.3-1.2,0.3-1.7,0l-2.6-1.5c-0.1,0-0.2,0-0.3,0l-2.6,1.5
		c-0.5,0.3-1.2,0.3-1.7,0l-2.6-1.5c-0.1-0.1-0.2-0.1-0.3,0l-2.6,1.5c-0.5,0.3-1.2,0.3-1.7,0l-2.6-1.5c-0.1-0.1-0.2-0.1-0.3,0
		l-2.6,1.5c-0.5,0.3-1.2,0.3-1.7,0l-2.6-1.5c-0.1-0.1-0.2-0.1-0.3,0l-3.4,2.2 M901,593.1l-1.1,0.6c-0.5,0.3-1.2,0.3-1.7,0l-2.6-1.5
		c-0.1,0-0.2,0-0.3,0l-2.6,1.5c-0.5,0.3-1.2,0.3-1.7,0l-2.6-1.5c-0.1,0-0.2,0-0.3,0l-2.6,1.5c-0.5,0.3-1.2,0.3-1.7,0l-2.6-1.5
		c-0.1,0-0.2,0-0.3,0l-2.6,1.5 M847.8,582.9l2.1-1.2c0.1-0.1,0.2-0.1,0.3,0l2.1,1.3c0.4,0.2,0.9,0.2,1.3,0l2.1-1.2
		c0.1-0.1,0.2-0.1,0.3,0l2.1,1.3c0.4,0.2,0.9,0.2,1.4,0l2.1-1.2c0.1-0.1,0.2-0.1,0.3,0l2.1,1.3c0.4,0.2,0.9,0.2,1.3,0l2.1-1.2
		c0.1,0,0.2,0,0.3,0l0.5,0.3v-8.8c0-0.7-0.4-1.4-1-1.8l-5.9-3.4c-0.1-0.1-0.1-0.1-0.1-0.2v-4.1c0-0.7-0.4-1.4-1-1.8l-3.6-2
		c-0.1,0-0.1-0.1-0.1-0.3v-1.3c0-0.7-0.4-1.4-1-1.8l-3.4-2h-7.5c-1,0-1.9,0.4-2.5,1.2 M852.1,554.1c0,0,0.1,0,0.1,0l4.6-2.6
		 M868.8,582.6l1,0.6c0.4,0.2,0.9,0.2,1.3,0l0.9-0.5 M839.4,543.4c0,0,0.1,0,0.1,0c0.1,0,0.2-0.1,0.2-0.1c0.1-0.1,0-0.3-0.1-0.4
		l-2.5-1.4l0,0h-0.1l0,0c0,0-0.1,0-0.1,0l0,0h-0.1l-2.5,1.4c-0.1,0.1-0.1,0.3,0,0.4c0.1,0.1,0.2,0.1,0.3,0.1l2-1.2v2.2l-2.3,1.4
		c-0.1,0.1-0.2,0.3-0.1,0.4c0.1,0.1,0.1,0.1,0.3,0.1c0,0,0.1,0,0.1,0l2-1.2v2.1l-2.3,1.3c-0.1,0.1-0.2,0.2-0.2,0.4
		c0.1,0.1,0.2,0.2,0.4,0.2c0,0,0.1,0,0.1,0l2-1.2v6.5c0,0.2,0.1,0.3,0.2,0.3c0.2,0,0.3-0.1,0.3-0.2c0,0,0-0.1,0-0.1v-6.6l2.1,1.3
		c0.1,0.1,0.3,0,0.4-0.1s0-0.3-0.1-0.4l0,0l-2.4-1.4V545l2,1.2c0.1,0.1,0.3,0,0.4-0.1c0,0,0,0,0,0c0.1-0.1,0-0.3-0.1-0.4l-2.3-1.3
		v-2.1L839.4,543.4z M846.5,547.8c0,0,0.1,0,0.1,0c0.1,0,0.2-0.1,0.2-0.1c0.1-0.1,0-0.3-0.1-0.4c0,0,0,0,0,0l-2.5-1.4l0,0
		c0,0-0.1,0-0.1,0l0,0c-0.1,0-0.1,0-0.2,0l-2.5,1.4c-0.1,0.1-0.2,0.3-0.1,0.4c0.1,0.1,0.3,0.2,0.4,0.1c0,0,0,0,0,0l2-1.2v2.2
		l-2.3,1.3c-0.1,0.1-0.2,0.3-0.1,0.4c0,0.1,0.1,0.1,0.2,0.1c0,0,0.1,0,0.1,0l2-1.2v2.2c0,0.2,0.1,0.3,0.2,0.3c0.2,0,0.3-0.1,0.3-0.2
		c0,0,0-0.1,0-0.1v-2.2l2,1.1c0.1,0.1,0.3,0,0.4-0.2c0.1-0.1,0-0.3-0.1-0.3l-2.3-1.3v-2.2L846.5,547.8z M903,546.4l1.1,1.2
		c0.7,0.8,1.6,1.2,2.6,1.2c0.3,0,0.5,0,0.8-0.1c0.7-1.8,2.7-2.8,4.5-2.1c0.4,0.2,0.8,0.4,1.2,0.7c1.3-0.2,2.3-1.2,2.7-2.4l0.1-0.2
		c2.7-1.5,6-1.6,8.8-0.3c1.3-0.3,2.3-1.2,2.6-2.5l0.1-0.2 M918.4,537.9l2.3,1.2 M875.1,536.4l-3.2-1.9 M828.4,552.6
		c0,0.1,0.1,0.1,0.2,0.1c0,0,0.1,0,0.1,0l2.8-1.6c0.1,0,0.1-0.1,0.1-0.2c0-0.1-0.1-0.2-0.1-0.2l-2.8-1.7c-0.1-0.1-0.3-0.1-0.4,0
		c-0.1,0.1-0.1,0.3,0,0.4c0,0,0,0,0.1,0l2.4,1.5l-2.4,1.4C828.3,552.3,828.3,552.5,828.4,552.6C828.4,552.6,828.4,552.6,828.4,552.6
		L828.4,552.6z M804.5,581.7h-11.9 M842.8,582h-15 M838.3,560.9l-2.2,3l3.9,8l4.3-4.7 M840,572l6.8-2.2 M840,572l4.7,2.5
		 M854.8,580.6l4.7-2.8c0.1-0.1,0.2-0.2,0.1-0.3v-4c0-0.9-0.5-1.8-1.3-2.3l-6.1-3.4v-3.9c0-0.8-0.4-1.6-1.2-2l-3.3-2.2l0.1-1.4
		 M850.8,571.9l1.4-3.9v-4.1 M851.8,508.7v-1.3c0-2-1.6-3.7-3.7-3.7c-0.6,0-1.3,0.2-1.8,0.5l-0.7,0.4v-0.2c0.1-2-1.5-3.7-3.5-3.8
		c-0.7,0-1.5,0.2-2.1,0.6l-0.8,0.5c-1.7-1.2-3.9-0.7-5.1,0.9c-0.4,0.6-0.6,1.3-0.7,2c-2.4,3-6.2,4.5-10,3.8
		c-1.4,0.7-2.2,2.1-2.2,3.7l-2,1.2c-1.3,0.7-1.7,2.4-1,3.6c0.3,0.4,0.6,0.8,1.1,1l1.7,0.9 M833.4,562.5H822c-0.7,0-1.2,0.4-1.3,1.1
		v0.1c0.1,0.7,0.6,1.1,1.3,1.1h6.7c0.9-0.1,1.7,0.5,1.9,1.4c0.1,0.9-0.5,1.7-1.4,1.9c-0.1,0-0.3,0-0.4,0h-12.6
		c-0.7,0-1.2,0.4-1.3,1.1v0.4c0.1,0.7,0.6,1.1,1.3,1.1H837 M835.3,578.3c0.2,0,0.3-0.1,0.3-0.3c0,0,0,0,0,0v-3.2
		c0-0.1-0.1-0.2-0.1-0.2c-0.1,0-0.2,0-0.3,0l-2.7,1.5c-0.1,0.1-0.2,0.2-0.2,0.4c0.1,0.1,0.2,0.2,0.4,0.2c0,0,0.1,0,0.1,0l2.3-1.3
		v2.7C835,578.2,835.2,578.3,835.3,578.3C835.3,578.3,835.4,578.3,835.3,578.3L835.3,578.3z M931.9,567h12.3c0.5,0,0.9-0.5,0.9-1.1
		v-0.3c0-0.6-0.4-1.1-0.9-1.1h-8.9c-0.9-0.2-1.6-1.1-1.4-2c0.1-0.7,0.7-1.2,1.4-1.4h3.1 M893.8,557v-3.6c0-0.1-0.1-0.2-0.1-0.2
		c-0.1-0.1-0.2-0.1-0.3,0l-3.2,1.8 M912.9,583.6l-1.1,0.6c-0.5,0.3-1.2,0.3-1.7,0l-2.6-1.5c-0.1-0.1-0.2-0.1-0.3,0l-2.6,1.5
		c-0.5,0.3-1.2,0.3-1.7,0l-2.6-1.5c-0.1,0-0.2,0-0.3,0l-2.6,1.5c-0.5,0.3-1.2,0.3-1.7,0l-2.6-1.5c-0.1-0.1-0.2-0.1-0.3,0l-2.6,1.5
		c-0.5,0.3-1.2,0.3-1.7,0l-2.6-1.5c-0.1-0.1-0.2-0.1-0.3,0l-2.6,1.5c-0.5,0.3-1.2,0.3-1.7,0l-2.6-1.5c-0.1-0.1-0.2-0.1-0.3,0
		l-3.4,2.2 M894.2,588.4l-1.1,0.6c-0.5,0.3-1.2,0.3-1.7,0l-2.6-1.5c-0.1-0.1-0.2-0.1-0.3,0l-2.6,1.5c-0.5,0.3-1.2,0.3-1.7,0
		l-2.6-1.5c-0.1-0.1-0.2-0.1-0.3,0L879,589c-0.5,0.3-1.2,0.3-1.7,0l-2.6-1.5c-0.1-0.1-0.2-0.1-0.3,0l-2.6,1.5
		c-0.5,0.3-1.2,0.3-1.7,0l-2.6-1.5c-0.1-0.1-0.2-0.1-0.3,0l-2.6,1.5c-0.5,0.3-1.2,0.3-1.7,0l-2.6-1.5c-0.1-0.1-0.2-0.1-0.3,0
		l-3.4,2.2 M933.9,571.6h15.8c0.7,0,1.3,0.6,1.3,1.3v0.3c0,0.7-0.6,1.3-1.3,1.3h-11.8c-1,0-1.9,0.8-1.9,1.9c0,1,0.8,1.9,1.9,1.9
		h16.7 M828.4,552.6c0,0.1,0.1,0.1,0.2,0.1c0,0,0.1,0,0.1,0l2.8-1.6c0.1,0,0.1-0.1,0.1-0.2c0-0.1-0.1-0.2-0.1-0.2l-2.8-1.7
		c-0.1-0.1-0.3-0.1-0.4,0c-0.1,0.1-0.1,0.3,0,0.4c0,0,0,0,0.1,0l2.4,1.5l-2.4,1.4C828.3,552.3,828.3,552.4,828.4,552.6
		C828.4,552.6,828.4,552.6,828.4,552.6L828.4,552.6z M830,574.5h-25.9c-1,0-1.8,0.6-2,1.6c-0.2,1.1,0.5,2.1,1.5,2.3
		c0.1,0,0.3,0,0.4,0h17c0.9,0,1.7,0.7,1.7,1.7l0,0l0,0c0,0.9-0.7,1.7-1.7,1.7l0,0h-13.2 M804.5,581.7h-11.9 M962.5,581.9h-33.9
		c3.4-3.5,3.2-9.2-0.3-12.5c-3.2-3.1-8.3-3.3-11.8-0.4v-0.1c0-1-0.3-2-1.1-2.8c-0.7-0.8-1.7-1.2-2.8-1.3c-0.5,0-1.1,0.1-1.6,0.3
		c0-0.6-0.1-1.2-0.3-1.7c-0.6-2.2-2-4-4-5.1c0,0-0.1,0-0.1,0c-4.1-2.3-9.4-0.8-11.7,3.3c-0.6,1.1-1,2.3-1.1,3.5
		c-1.1-0.5-2.3-0.7-3.5-0.7c-4.3,0-7.9,3-8.8,7.2c-0.4,0-0.7,0-1.1,0c-0.8,0-1.5,0.1-2.2,0.3 M917.6,578.2c-0.1,0.8,0.4,1.6,1.3,1.8
		c1.1,0.2,2.2-0.6,2.4-1.7c0,0,0,0,0,0c0.2-1.6-0.8-3-2.4-3.3c-1.1-0.2-2.3,0.1-3.2,0.8c-0.8,0.6-1.3,1.5-1.4,2.5
		c-0.2,1.6,0.3,3.3,1.4,4.5c1.7,1.7,4.5,2,5.9,2c0.3,0,0.6,0,0.7,0c2.1,0,4.1-0.8,5.7-2.2c0,0,0.1,0,0.1,0 M905.1,568.1
		c0.3-0.5,0.4-1.1,0.2-1.7c-0.2-0.6-0.5-1.1-1.1-1.4c-1.5-0.8-3.4-0.3-4.3,1.1c-0.6,1-0.7,2.1-0.4,3.2c0.3,1.1,1,2.1,2,2.6
		c2.9,1.6,6.6,0.7,8.3-2.2c0.7-1.2,1.1-2.6,1.2-4 M882.2,571.6c0.8,0.1,1.6,0.4,2.4,0.7 M945.1,558.3l-6.2-3.4
		c-1.6-0.9-3.5-0.9-5.1,0l-4,2.2l-7.8-4.8c-1.7-1.1-3.9-1.1-5.6,0l-6.2,3.8 M881.6,564.2c-3.6-3.3-3.9-8.9-0.6-12.5
		c0.6-0.7,1.3-1.2,2.1-1.7l12.4-7.3c2.6-1.5,3.5-4.9,2-7.5c-0.5-0.8-1.1-1.5-2-2L866.8,517c-2.6-1.6-2.6-3.4-2.5-6c0-0.5,0-1,0-1.5
		v-1.3c0-0.2,0.1-0.3,0.3-0.3c0,0,0.1,0,0.1,0l2,1.1c1.1,0.6,2.5,0.2,3.1-0.9c0.2-0.3,0.3-0.7,0.3-1.1c0-0.1,0.1-0.2,0.1-0.2
		c0.1,0,0.2,0,0.3,0l1,0.6c1.5,0.9,3.3,0.8,4.7,0l1-0.6 M876.1,521.7l1.5-1c2.4-1.6,3.9-4.3,3.9-7.2v-2.2 M880.2,508v0.3
		c0,1.5,1.2,2.7,2.7,2.7c0.4,0,0.8-0.1,1.2-0.3l0.4-0.2c0.1,0,0.2,0,0.3,0c0.1,0.1,0.1,0.1,0.1,0.2v0.2c0,1.5,1.2,2.7,2.7,2.7
		c0.5,0,1-0.1,1.4-0.4l0.1-0.1 M885.5,513.5v1.9c0,3.1-1.5,6-4.1,7.6l-1.4,0.9 M891.6,545.6l1.1,0.6c2.2,1.3,4.9,1.3,7.1,0l17.1-9.9
		v-2.1"/>
	<path class="st10" d="M962.6,576.4h-2.7c-0.4-1.7-1.5-3.2-3.2-3.9v-0.1c0-3.4-2.4-6.3-5.8-6.8c0-0.1,0-0.2,0-0.3V565
		c0-1.5-0.5-2.9-1.3-4.1c0.1-0.1,0.1-0.2,0.2-0.3c1.4-2.6,0.5-5.8-2.1-7.2c0,0,0,0,0,0l-6.1-3.4c-3.1-1.7-6.9-1.7-10,0l0,0l-1.4,0.8
		l-3.4-2.1c0.3-0.1,0.7-0.3,1-0.4c1,0.8,2.2,1.3,3.4,1.3c0.8,0,1.6-0.2,2.4-0.6c2.7-1.3,4.4-4,4.6-7c0.1-1-0.1-2-0.4-3
		c0.4-0.9,0.5-1.9,0.5-3c0-2.1-0.8-4.2-2.3-5.8c-0.1-0.4-0.2-0.7-0.4-1.1c0.4-0.1,0.7-0.3,1.1-0.4c1.7,0.1,3.5-0.3,5-1.2
		c2.8-2.8,4.8-6.4,5.7-10.3c0-1-0.1-2-0.5-3c1.1-3.7-0.4-7.7-3.8-9.7l-0.1-0.1h0c-0.5-0.3-1.1-0.6-1.6-0.8c-0.5-2.1-1.9-3.9-3.7-5
		c-2.6-0.2-4.9-1.5-6.3-3.7c-2.5-0.2-4.8-1.6-6.1-3.8c-0.8-0.5-1.6-0.8-2.5-1c0.1-0.4,0.1-0.8,0.1-1.3c0-3.4-1.9-6.4-4.9-8
		c-2.6-0.4-5-1.8-6.7-3.9c-1.1-0.5-2.3-0.8-3.5-0.9c-0.8-0.8-1.7-1.5-2.7-2c-2.6-0.2-5-1.5-6.7-3.5c-3-1.5-6.6-1.3-9.4,0.5l-3.8,2.5
		c-0.2,0-0.4-0.1-0.6-0.1c-0.7-0.8-1.6-1.5-2.5-2c-3.2-0.7-6.4-1.4-9.7-2.1c-3.1,1.1-6.2,2-9.3,2.7c-2.4,1.4-4,4-4.3,6.8
		c-0.8,0.5-1.6,1-2.2,1.7c-1.3,0.1-2.6,0.5-3.7,1.2c-0.6,0.4-1.2,0.8-1.8,1.3c-2.9-0.1-5.6,1.3-7.3,3.5c-5,2.8-9.5,6.4-13.5,10.5
		c-0.1,0.4-0.2,0.8-0.2,1.2c-2.4,0.4-4.6,1.7-6,3.7c-1.1,0.2-2.1,0.5-3.1,1c-2,1.1-3.5,2.8-4.3,4.9l-0.1,0c-3.7,2.1-5,6.8-2.9,10.5
		c0.7,1.3,1.9,2.4,3.2,3.1l1.7,0.9c0.4,0.2,0.9,0.4,1.4,0.5c-0.1,0.5-0.1,1-0.1,1.5v0.3c0,1.9,1,3.6,2.6,4.6l2.2,1.3
		c3.8,2.3,8.5,2.4,12.3,0.1c2.8-1.7,6.3-1.7,9.2,0c3.7,2.2,8.3,2.3,12,0.2l2-1.1c1.2-0.7,2.1-1.8,2.5-3.2l5.7,3.2
		c-1.2,1-2,2.5-2,4.1c-1.3-0.2-2.6,0-3.8,0.6c-0.6-0.1-1.3-0.1-1.9,0c-3.2-0.9-6.7-1.1-10-0.7l-1.1,0.6c-2.1,1.2-3.4,3.3-3.4,5.7
		c-0.1,0.1-0.1,0.2-0.2,0.3c-0.3-0.1-0.7-0.2-1-0.3h-0.1l-0.4,0h-0.2c-0.5-1-1.2-1.8-2.2-2.3l-2.5-1.4l-0.2-0.1l0,0
		c-0.5-0.2-1-0.4-1.5-0.5h-0.1l-0.4,0c-0.6,0-1.2,0-1.8,0.2l-0.3,0.1c-0.4,0.1-0.7,0.3-1,0.4l-2.5,1.4c-1.9,1.1-2.9,3.2-2.6,5.3
		c-2.1-0.3-4.2,0.7-5.3,2.5c-0.7,1.2-1,2.7-0.6,4c0,0.2,0.1,0.3,0.1,0.5c-0.5,1.4-0.3,2.9,0.4,4.2c-0.3,0.6-0.5,1.2-0.6,1.8h-1.3
		c-3.4,0-6.3,2.4-6.8,5.7c-3.3,0.4-5.8,3.3-5.9,6.6v0.3h-5.3c-3.9,0-7,3.1-7,7c0,0,0,0.1,0,0.1h-4.4c-2.9,0-5.3,2.4-5.3,5.3
		s2.4,5.3,5.3,5.3h11.9c0.6,0,1.2-0.1,1.8-0.3c0.5,0.1,1,0.2,1.4,0.2h14.9c0.8,0,1.6-0.1,2.3-0.4c0.8,0.5,1.8,0.8,2.8,0.8h15
		c0.6,0,1.2-0.1,1.8-0.3c0.6,0.5,1.2,0.8,1.9,1c1.2,0.3,2.4,0.3,3.5-0.2c0.6,0.3,1.2,0.5,1.9,0.6c0,0,0,0.1,0,0.2
		c-0.6,2.9,1.2,5.7,4.1,6.3c1.4,0.3,2.8,0,4-0.7l0.7-0.4c4.3-0.3,8.7-0.1,13,0.4c0.1,0.7,0.3,1.3,0.6,1.9l0.3,0.5
		c1.4,2.4,4.4,3.2,6.8,1.9c2.2,1.2,4.9,1.2,7.1,0c4.8,0,9.5,0,14.3-0.1l1.1-0.6c2.5-1.5,3.4-4.7,1.9-7.3c-0.2-0.3-0.3-0.6-0.6-0.8
		c0.8-0.1,1.6-0.4,2.3-0.8c2.2,1.2,5,1.2,7.2-0.1l0.8-0.5c1.9,0.8,4,1.2,6.1,1.2c0.4,0,0.7,0,1,0c2.5-0.1,5-0.8,7.1-2.2h32.7
		c2.9,0.1,5.4-2.2,5.5-5.1c0.1-2.9-2.2-5.4-5.1-5.5C962.9,576.4,962.7,576.4,962.6,576.4L962.6,576.4z"/>
	
		<linearGradient id="SVGID_9_" gradientUnits="userSpaceOnUse" x1="344.099" y1="124.7215" x2="1020.1071" y2="124.7215" gradientTransform="matrix(1 0 0 -1 0 754.48)">
		<stop  offset="0" style="stop-color:#7EC7E6"/>
		<stop  offset="1" style="stop-color:#B28CFF"/>
	</linearGradient>
	<path class="st12" d="M1018.1,621.4v9.7c0,3.9-3.1,7-7,7h-658c-3.9,0-7-3.1-7-7v-9.7"/>
	
		<linearGradient id="SVGID_10_" gradientUnits="userSpaceOnUse" x1="330.194" y1="350.489" x2="1034.3059" y2="350.489" gradientTransform="matrix(1 0 0 -1 0 754.48)">
		<stop  offset="0" style="stop-color:#7EC7E6"/>
		<stop  offset="1" style="stop-color:#B28CFF"/>
	</linearGradient>
	<path class="st13" d="M349,182.4h666.5c9.3,0,16.8,7.5,16.8,16.8l-12,414.3c-0.3,6.7-5.9,12-12.6,12h-651
		c-6.7,0-12.2-5.2-12.6-11.9l-11.9-414.4C332.2,190,339.7,182.4,349,182.4z"/>
	<path class="st2" d="M1242.4,623.2H1217c-1.7,0-3.1-2.7-3.1-6.1c0-3.3,1.4-6.1,3.1-6.1h25.4
		C1240.7,614.9,1240.7,619.3,1242.4,623.2L1242.4,623.2z"/>
	<circle class="st2" cx="1255.9" cy="617.1" r="14.7"/>
	<path class="st2" d="M1267.9,594.3c0-6.8,5.9-13.1,14-13.1"/>
	<path class="st2" d="M1297.4,596c0,8.1-29.5,8.1-29.5,0c0-0.7,0.1-1.3,0.2-2h-20.2c-1.7,0-3.1-2.7-3.1-6.1c0-3.3,1.4-6.1,3.1-6.1
		c0,0,33.3-0.6,34.8-0.6C1290.8,581.3,1297.4,587.9,1297.4,596C1297.4,596,1297.4,596,1297.4,596z"/>
	
		<linearGradient id="SVGID_11_" gradientUnits="userSpaceOnUse" x1="0" y1="381.1665" x2="1347.077" y2="381.1665" gradientTransform="matrix(1 0 0 -1 0 754.48)">
		<stop  offset="0" style="stop-color:#7EC7E6"/>
		<stop  offset="1" style="stop-color:#B28CFF"/>
	</linearGradient>
	<path class="st14" d="M1099.9,380h67.5c3.9,0,7-3.1,7-7v-1c0-3.9-3.1-7-7-7h-87c-3.9,0-7-3.1-7-7v-0.7c0-3.9,3.1-7,7-7h162.3
		c3.9,0,7,3.1,7,7v0.9c0,3.9-3.1,7-7,7h-36.4c-3.9,0-7,3.1-7,7v0.7c0,3.9,3.1,7,7,7h12.7c3.9,0,7,3.1,7,7v0.6c0,3.9-3.1,7-7,7h-76.2
		c-3.9,0-7,3.1-7,7v0.8c0,3.9,3.1,7,7,7h49.7c3.9,0,7,3.1,7,7v0.7c0,3.9-3.1,7-7,7h-17.9 M1187.2,328h75.4 M1187.2,313.7h53.5
		 M1149.1,424h-50 M1225.1,423.8l12.6-7l12.1,7.3l-12.4,7.2L1225.1,423.8z M140,350.3H64.7 M102.4,307.6H71.1c-3.7,0-6.7,3-6.7,6.7
		l0,0l0,0c0,3.7,3,6.7,6.7,6.7h0h50.2c3.7,0,6.7,3,6.7,6.7v1.1c0,3.7-3,6.7-6.7,6.7h-32 M102.1,283.1h17.1c3.9,0,7.1-3.2,7.1-7.1
		v-0.8c0-3.9-3.2-7.1-7.1-7.1H83.8c-3.9,0-7.1-3.2-7.1-7.1l0,0c0-3.9,3.2-7.1,7.1-7.1h99.8c3.9,0,7.1-3.2,7.1-7.1v-0.4
		c0-3.9-3.2-7.1-7.1-7.1h-74.2c-3.9,0-7.1-3.1-7.1-7c0,0,0,0,0,0v-0.3c0-3.9,3.2-7.1,7.1-7.1h56.1 M271.8,210.3H227 M214,210.3h-25
		 M127.6,298.1l12.8-6.5v14.7L127.6,298.1z M140.4,269.2h37.6 M178.1,225.1h70.1 M1141.3,182.5c4.7-1.3,9.8-1,14.3,1
		c-0.1-0.7-0.2-1.4-0.3-2.1c-0.2-6.6,5-12,11.6-12.2c2.1-0.1,4.2,0.4,6,1.4c0.3-14.8,12.6-26.5,27.3-26.2c13.5,0.3,24.7,10.6,26,24
		c9.2-3.6,19.5,0.9,23.1,10.1c0.8,1.9,1.2,3.9,1.2,6c0,0.4,0,0.7,0,1c9.2-3.6,19.5,1,23.1,10.2c2.9,7.6,0.4,16.2-6.2,21 M1191.9,179
		c-1.8-3.1-0.7-7,2.4-8.8c0,0,0,0,0,0c4.4-2.5,10-1,12.5,3.4c3.6,6.3,1.5,14.3-4.8,17.9c0,0,0,0,0,0c-9,5.2-20.4,2.1-25.6-6.9
		c-7.4-12.7-3.1-29,9.6-36.4c0,0,0.1,0,0.1-0.1 M1243.1,170.5c8,5.7,9.9,16.9,4.2,24.9c-4,5.6-11.8,6.9-17.4,2.9
		c-3.9-2.8-4.8-8.3-2-12.2c2-2.7,5.8-3.4,8.5-1.4c1.9,1.4,2.4,4.1,1,6c0,0,0,0,0,0 M1211.6,490.2h134 M1027,490.2h24.4 M316.5,490.2
		h21.3 M117.5,490.2h34.6 M1.5,490.2h90.6 M1160.3,202.7h-94.8c-3.9,0-7-3.1-7-7l0,0c0-3.9,3.1-7,7-7h44.4 M1123.9,217.4h112.4
		 M1086.8,217.4h24.6 M1057.8,217.4h21.2 M1086,291.6h63.5 M1057.1,232.1h211.4c3.9,0,7,3.1,7,7l0,0c0,3.9-3.1,7-7,7h-112
		c-3.9,0-7,3.1-7,7v1.4c0,3.9,3.1,7,7,7h35.7c3.9,0,7,3.1,7,7l0,0c0,3.9-3.1,7-7,7h-112c-3.9,0-7-3.1-7-7l0,0c0-3.9,3.1-7,7-7h37.1
		c3.9,0,7-3.1,7-7v-1.4c0-3.9-3.1-7-7-7h-60.2c-3.9,0-7-3.1-7-7l0,0C1050.1,235.3,1053.2,232.1,1057.1,232.1z M1174,291.6h51.1
		 M1237.7,269.2l-12.6,7.7v-14.7L1237.7,269.2z M1250.3,291.6h25.2 M1048,350.4l12.6-7.7v15.4L1048,350.4z M1055,313.3h112.7
		c3.9,0,7,3.1,7,7v0.7c0,3.9-3.1,7-7,7H1055c-3.9,0-7-3.1-7-7v-0.7C1048,316.5,1051.1,313.3,1055,313.3z M1242.4,623.2H1217
		c-1.7,0-3.1-2.7-3.1-6.1c0-3.3,1.4-6.1,3.1-6.1h25.4C1240.7,614.9,1240.7,619.3,1242.4,623.2L1242.4,623.2z M1270.6,617.1
		c0,8.1-6.6,14.7-14.8,14.7c-8.1,0-14.7-6.6-14.7-14.8c0-8.1,6.6-14.7,14.8-14.7c0,0,0,0,0,0C1264,602.4,1270.6,609,1270.6,617.1z
		 M1267.9,594.4c0-6.8,5.9-13.1,14-13.1 M1297.3,596c0,8.1-29.5,8.1-29.5,0c0-0.7,0.1-1.3,0.2-2h-20.2c-1.7,0-3.1-2.7-3.1-6.1
		c0-3.3,1.4-6.1,3.1-6.1c0,0,33.3-0.6,34.8-0.6C1290.7,581.3,1297.4,587.8,1297.3,596C1297.4,596,1297.4,596,1297.3,596L1297.3,596z
		 M1244.7,587.4h-160.3c-6.1,0-11.1-5-11.1-11.1c0,0,0,0,0,0l0,0c0-6.1,5-11,11.1-11h32.3c3.9,0,7,3.1,7,7v0.8c0,3.9-3.1,7-7,7
		h-60.4c-3.9,0-7,3.1-7,7v1.3c0,3.9,3.1,7,7,7h67.4c7.7,0,14,6.3,14,14c0,0.1,0,0.2,0,0.3v0.4c-0.2,7.6-6.4,13.7-14,13.7H1094
		c-3.9,0-7-3.1-7-7v-0.6c0-3.9,3.1-7,7-7h45.9c6.2,0,11.2,5,11.2,11.2l0,0c0,6.2-5,11.2-11.2,11.2h-90.3c-7.7,0-14-6.3-14-14v-9.3
		c0-7.7-6.3-14-14-14 M1214.2,616.7h-39.5c-7.7,0-14-6.3-14-14v-1.3c0-7.7,6.3-14,14-14h10.9 M292,276.7h21.7 M291.6,350.3v-14.7
		l12.4,7.5L291.6,350.3z M307,239.8h-26.6c-3.9,0-7-3.1-7-7v-0.7c0-3.9,3.1-7,7-7H300c3.9,0,7-3.1,7-7v-0.7c0-3.9-3.1-7-7-7h-13.6
		 M153.1,542.5c-35.3-0.4-63.7-32.2-63.7-71.3s28.5-70.9,63.7-71.3v26.9c-21.8,0.4-39.4,20.1-39.4,44.4s17.6,44,39.4,44.4V542.5z
		 M144.4,471.1c0,0,0,0.1,0,0.1V471.1z M308.2,424.1v0.1C308.2,424.2,308.2,424.1,308.2,424.1z M161.2,471.3v-0.1l0,0
		C161.2,471.2,161.2,471.2,161.2,471.3L161.2,471.3z M291.4,471.3c0,0,0-0.1,0-0.1l0,0V471.3z M144.4,471.1c0,0,0,0.1,0,0.1V471.1z
		 M308.2,424.1v0.1C308.3,424.2,308.3,424.1,308.2,424.1z M228.4,559h-61.7c-7.7,0-14-6.3-14-14V384.1c0-1.2,0.9-2.1,2.1-2.1h159.6
		c1.2,0,2.1,0.9,2.1,2.1V545c0,7.7-6.3,14-14,14h-16.6 M299.8,559.1v3c0,3.9-3.1,7-7,7H176.6c-3.9,0-7-3.1-7-7v-3 M1223.5,498.6
		c10,8.6,21.9,23.9,21.9,37.8l0,0c0,7.4-6.3,13.5-14,13.5h-138.6c-7.7,0-48.5-24.9-48.5-32.3l0,0c0-33.8,20.5-44.3,47.6-44.3h75.5
		C1182.4,473.3,1216.8,492.7,1223.5,498.6L1223.5,498.6z M1065.6,492.4l12,6.8c6.8,3.7,17,14.2,16.7,21.7 M1073.4,114.8h94.3
		c3.9,0,7,3.1,7,7v0.3c0,3.9-3.1,7-7,7h-44.3 M1073.3,158.8h70.2c3.9,0,7-3.1,7-7v-0.7c0-3.9-3.1-7-7-7H1030c-3.9,0-7-3.1-7-7v-1
		c0-3.9,3.1-7,7-7h81.3 M1010.4,158.8h50.4 M972.5,158.8h25.2 M121.3,372.8c0,3.6-2.9,6.6-6.6,6.6c-3.6,0-6.6-2.9-6.6-6.6
		c0-3.6,2.9-6.6,6.6-6.6h0C118.3,366.3,121.3,369.2,121.3,372.8z M116,395H77.2 M316.8,600.8H215.9 M203.4,600.8h-50.7 M266,630.3
		h43.4c4.1,0,7.4-3.3,7.4-7.4l0,0c0-4.1-3.3-7.4-7.4-7.4h0H190.7"/>
	
		<linearGradient id="SVGID_12_" gradientUnits="userSpaceOnUse" x1="959.238" y1="122.639" x2="963.218" y2="122.639" gradientTransform="matrix(1 0 0 -1 0 754.48)">
		<stop  offset="0" style="stop-color:#7EC7E6"/>
		<stop  offset="1" style="stop-color:#B28CFF"/>
	</linearGradient>
	<line class="st15" x1="961.2" y1="638.1" x2="961.2" y2="625.6"/>
	
		<linearGradient id="SVGID_13_" gradientUnits="userSpaceOnUse" x1="390.166" y1="122.639" x2="394.146" y2="122.639" gradientTransform="matrix(1 0 0 -1 0 754.48)">
		<stop  offset="0" style="stop-color:#7EC7E6"/>
		<stop  offset="1" style="stop-color:#B28CFF"/>
	</linearGradient>
	<line class="st16" x1="392.2" y1="638.1" x2="392.2" y2="625.6"/>
</g>
</svg>
