<?xml version="1.0" encoding="utf-8"?>
<!-- Generator: Adobe Illustrator 24.0.3, SVG Export Plug-In . SVG Version: 6.00 Build 0)  -->
<svg version="1.1" id="Layer_1" xmlns="http://www.w3.org/2000/svg" xmlns:xlink="http://www.w3.org/1999/xlink" x="0px" y="0px"
	 width="512px" height="512px" viewBox="0 0 512 512" style="enable-background:new 0 0 512 512;" xml:space="preserve">
<style type="text/css">
	.st0{fill:url(#SVGID_1_);}
	.st1{fill:url(#SVGID_2_);}
	.st2{fill:#FFFFFF;}
	.st3{font-family:'ArialMT';}
	.st4{font-size:28.17px;}
	.st5{letter-spacing:1;}
	.st6{fill-rule:evenodd;clip-rule:evenodd;fill:#FFFFFF;}
</style>
<title>twitter-frame-1 copy</title>
<g id="ecosystem-2">
	
		<linearGradient id="SVGID_1_" gradientUnits="userSpaceOnUse" x1="81.1492" y1="-44.8514" x2="430.8508" y2="560.8514" gradientTransform="matrix(1 0 0 -1 0 514)">
		<stop  offset="0.11" style="stop-color:#9D70D0"/>
		<stop  offset="0.63" style="stop-color:#8A96E9"/>
		<stop  offset="0.75" style="stop-color:#8697E7"/>
		<stop  offset="0.87" style="stop-color:#7A9BE2"/>
		<stop  offset="1" style="stop-color:#65A2DA"/>
		<stop  offset="1" style="stop-color:#65A2DA"/>
	</linearGradient>
	<path class="st0" d="M512,0H0v512h512V0z"/>
	
		<linearGradient id="SVGID_2_" gradientUnits="userSpaceOnUse" x1="166.166" y1="123.1512" x2="399.1013" y2="526.603" gradientTransform="matrix(1 0 0 -1 0 514)">
		<stop  offset="0" style="stop-color:#B28CFF"/>
		<stop  offset="1" style="stop-color:#7EC7E6"/>
	</linearGradient>
	<path class="st1" d="M512,342.4h-48c-4.6,0-8.3,3.7-8.3,8.3v1c0,4.6,3.7,8.3,8.3,8.3h17.8c6.2,0,11.3,5.1,11.3,11.3c0,0,0,0,0,0
		v0.8c0,6.2-5,11.3-11.3,11.3H375.3c-4.6,0-8.3,3.7-8.3,8.3v1.1c0,4.6,3.7,8.3,8.3,8.3H455c6.2,0,11.3,5.1,11.3,11.3v1
		c0,6.2-5.1,11.2-11.3,11.2h-35.2c-0.8,0-1.5-0.7-1.5-1.5s0.7-1.5,1.5-1.5H455c4.6,0,8.3-3.7,8.3-8.3v-1c0-4.6-3.7-8.3-8.3-8.3
		h-79.7c-6.2,0-11.3-5-11.3-11.3v-1.1c0-6.2,5-11.3,11.3-11.3h106.5c4.6,0,8.3-3.7,8.3-8.3v-0.8c0-4.6-3.7-8.3-8.3-8.3H464
		c-6.2,0-11.3-5.1-11.3-11.3v-1c0-6.2,5.1-11.3,11.3-11.3h48V342.4z M512,321.5H287.6c-4.6,0-8.3,3.7-8.3,8.3v1
		c0,4.6,3.7,8.3,8.3,8.3h121.6c6.2,0,11.3,5,11.3,11.3v1.3c0,6.2-5.1,11.3-11.3,11.3h-94.4c-0.8,0-1.5-0.7-1.5-1.5s0.7-1.5,1.5-1.5
		h94.4c4.6,0,8.3-3.7,8.3-8.3v-1.3c0-4.6-3.7-8.3-8.3-8.3H287.6c-6.2,0-11.3-5.1-11.3-11.3v-1c0-6.2,5.1-11.3,11.3-11.3H512V321.5z
		 M383.6,424.5H224.9c-0.8,0-1.5-0.7-1.5-1.5s0.7-1.5,1.5-1.5h158.7c0.8,0,1.5,0.7,1.5,1.5S384.4,424.5,383.6,424.5z M511.9,290.4
		H437c-0.8,0-1.5-0.7-1.5-1.5s0.7-1.5,1.5-1.5h75L511.9,290.4z M409.6,290.4H252.1c-6.2,0-11.3-5.1-11.3-11.3v-1
		c0-6.2,5.1-11.3,11.3-11.3h157.6c6.2,0,11.3,5.1,11.3,11.3v1C420.9,285.4,415.9,290.4,409.6,290.4z M252.1,269.9
		c-4.6,0-8.3,3.7-8.3,8.3v1c0,4.6,3.7,8.3,8.3,8.3h157.6c4.6,0,8.3-3.7,8.3-8.3v-1c0-4.6-3.7-8.3-8.3-8.3H252.1z M511.9,270.3H437
		c-0.8,0-1.5-0.7-1.5-1.5s0.7-1.5,1.5-1.5h75L511.9,270.3z M489.9,239.5h-71.5c-0.8,0-1.5-0.7-1.5-1.5s0.7-1.5,1.5-1.5h71.4
		c0.8,0,1.5,0.7,1.5,1.5S490.7,239.5,489.9,239.5L489.9,239.5L489.9,239.5z M384.2,239.5h-88.8c-0.8,0-1.5-0.7-1.5-1.5
		s0.7-1.5,1.5-1.5h88.7c0.8,0,1.5,0.7,1.5,1.5S385,239.5,384.2,239.5L384.2,239.5z M489.7,219c-0.3,0-0.5-0.1-0.8-0.2L471.3,208
		c-0.7-0.4-0.9-1.4-0.5-2.1c0.1-0.2,0.3-0.4,0.5-0.5l17.7-10.7c0.7-0.4,1.6-0.2,2.1,0.5c0.1,0.2,0.2,0.5,0.2,0.8v21.5
		C491.3,218.3,490.6,219,489.7,219L489.7,219z M475,206.8l13.2,8.1v-16.2L475,206.8z M512,175.9H394c-4.6,0-8.3,3.7-8.3,8.3v2
		c0,4.6,3.7,8.3,8.3,8.3h56.1c6.2,0.2,11.1,5.4,10.9,11.6c-0.2,6-5,10.8-10.9,10.9H287.3c-6.2,0.2-11.4-4.7-11.6-10.9
		c-0.2-6.2,4.7-11.4,10.9-11.6c0.2,0,0.4,0,0.7,0h51.9c4.6,0,8.3-3.7,8.3-8.3v-2c0-4.6-3.7-8.3-8.3-8.3H255
		c-6.2,0-11.3-5.1-11.3-11.3c0-6.2,5.1-11.3,11.3-11.3h257v3H255c-4.6,0-8.3,3.7-8.3,8.3c0,4.6,3.7,8.3,8.3,8.3l0,0h84.2
		c6.2,0,11.3,5.1,11.3,11.3v2c0,6.2-5.1,11.3-11.3,11.3h-51.9c-4.6-0.2-8.4,3.4-8.6,8c-0.2,4.6,3.4,8.4,8,8.6c0.2,0,0.4,0,0.6,0H450
		c4.6-0.2,8.2-4,8-8.6c-0.2-4.4-3.6-7.8-8-8h-56c-6.2,0-11.3-5.1-11.3-11.3v-2c0-6.2,5.1-11.3,11.3-11.3h118V175.9z M505.6,135.8
		H0.1v-3h505.4c0.8,0,1.5,0.7,1.5,1.5S506.4,135.8,505.6,135.8z M512,68.5c-6.1-3.4-13.5-3.9-20-1.3c-0.8,0.3-1.6-0.1-1.9-0.9
		c0-0.1-0.1-0.2-0.1-0.3c-2-19.7-19.7-34.1-39.4-32.1c-5,0.5-9.9,2.1-14.3,4.6l-0.1,0.1c-0.4,0.2-0.9,0.5-1.3,0.8
		c-10.1,6.4-16.3,17.5-16.6,29.5c0,0.1,0,0.3-0.1,0.4c0,6.4,1.6,12.7,4.8,18.2c6.8,11.8,21.9,15.9,33.7,9.1c0,0,0,0,0,0
		c8.1-4.6,10.8-14.9,6.2-23c0,0,0,0,0,0c-3.1-5.4-10-7.3-15.5-4.2c0,0,0,0,0,0c-3.6,2.1-4.8,6.6-2.8,10.2c0.4,0.7,0.2,1.6-0.5,2.1
		s-1.6,0.2-2.1-0.5c0,0,0-0.1-0.1-0.1c-2.9-5-1.1-11.4,3.9-14.3c6.9-3.9,15.6-1.6,19.6,5.3c0,0,0,0,0,0c5.5,9.5,2.2,21.6-7.3,27.1
		c0,0,0,0,0,0c-13.3,7.6-30.2,3.1-37.8-10.2c0,0,0,0,0-0.1c-3.4-5.9-5.2-12.5-5.2-19.3c-2.1-1-4.5-1.5-6.8-1.4
		c-8.4,0.3-14.9,7.2-14.7,15.6c0,0,0,0,0,0c0,0.9,0.1,1.8,0.3,2.7c0.1,0.6-0.1,1.1-0.5,1.5c-0.4,0.4-1,0.4-1.6,0.2
		c-3.8-1.7-8-2.5-12.1-2.4c-2.3,0.1-4.6,0.4-6.8,1c-0.8,0.3-1.6-0.1-1.9-0.9c-0.3-0.8,0.1-1.6,0.9-1.9c0.1,0,0.1,0,0.2,0
		c2.4-0.7,5-1.1,7.5-1.2c3.7-0.1,7.5,0.5,11,1.7c0-0.2,0-0.3,0-0.5c-0.3-10,7.6-18.4,17.6-18.7c2.4-0.1,4.8,0.3,7,1.2
		c0.2-2.4,0.6-4.7,1.2-7c2.5-9.4,8.4-17.5,16.6-22.7c18.1-11.6,42.2-6.4,53.8,11.7c3,4.6,4.9,9.8,5.7,15.2c2.3-0.7,4.7-1.1,7.1-1.2
		c4.2-0.1,8.4,0.8,12.2,2.6V68.5z M512,111.5c-5.6,1.7-11.6,0.7-16.4-2.7c-6.2-4.4-7.6-13-3.2-19.2c3.2-4.5,9.5-5.5,14-2.3
		c3.4,2.4,4.1,7.1,1.7,10.4c-0.6,0.6-1.5,0.6-2.1,0.1c-0.5-0.5-0.6-1.2-0.3-1.8c1.4-2,1-4.8-1-6.3c-3.2-2.3-7.6-1.5-9.9,1.7
		c-3.5,4.8-2.3,11.5,2.5,15c0,0,0,0,0,0c4.3,3,9.7,3.8,14.7,2L512,111.5z M399.3,115.2h-372c-6.2,0.2-11.4-4.7-11.6-10.9
		c-0.2-6.2,4.7-11.4,10.9-11.6c0.2,0,0.4,0,0.7,0h301.5c0.8,0,1.5,0.7,1.5,1.5s-0.7,1.5-1.5,1.5H27.3c-4.6-0.2-8.4,3.4-8.6,8
		c-0.2,4.6,3.4,8.4,8,8.6c0.2,0,0.4,0,0.6,0h372c0.8,0,1.5,0.7,1.5,1.5S400.2,115.2,399.3,115.2L399.3,115.2z M65.6,75.4H43.3
		c-0.8,0-1.5-0.7-1.5-1.5s0.7-1.5,1.5-1.5h22.3c0.8,0,1.5,0.7,1.5,1.5S66.4,75.4,65.6,75.4z M375.9,53.7h-98.2
		c-0.8,0-1.5-0.7-1.5-1.5s0.7-1.5,1.5-1.5h98.2c4.6,0,8.3-3.7,8.3-8.3v-1c0-4.6-3.7-8.3-8.3-8.3H179.3c-6.2,0-11.3-5.1-11.3-11.3
		c0,0,0,0,0,0v-1.4c0-6.2,5.1-11.3,11.3-11.3h151.4c0.8,0,1.5,0.7,1.5,1.5s-0.7,1.5-1.5,1.5H179.3c-4.6,0-8.3,3.7-8.3,8.3v1.4
		c0,4.6,3.7,8.3,8.3,8.3h196.6c6.2,0,11.3,5,11.3,11.3v1C387.2,48.7,382.1,53.7,375.9,53.7C375.9,53.7,375.9,53.7,375.9,53.7z
		 M268.6,53.7H173c-0.8,0-1.5-0.7-1.5-1.5s0.7-1.5,1.5-1.5h95.6c0.8,0,1.5,0.7,1.5,1.5S269.4,53.7,268.6,53.7z M409.6,12.1h-61.9
		c-0.8,0-1.5-0.7-1.5-1.5s0.7-1.5,1.5-1.5h62c4.6,0,8.3-3.7,8.3-8.3V0h3v0.9C420.9,7.1,415.9,12.1,409.6,12.1L409.6,12.1z"/>
	<text transform="matrix(0.99 0 0 1 86.8799 477.48)" class="st2 st3 st4 st5">WISH YOU WERE HERE</text>
	<path class="st6" d="M51.1,22.7c1.9,0,3.4,1.6,3.4,3.4c0,0,0,0,0,0l0,0v31.3c0,1.9-1.5,3.4-3.4,3.4c0,0,0,0,0,0H23.9
		c-1.9,0-3.4-1.5-3.4-3.4l0,0V26.1c0-1.9,1.5-3.4,3.4-3.4H51.1z M51.1,24.6H23.9c-0.8,0-1.5,0.7-1.5,1.5c0,0,0,0,0,0l0,0v31.3
		c0,0.8,0.7,1.5,1.5,1.5c0,0,0,0,0,0h27.2c0.8,0,1.5-0.7,1.5-1.5l0,0V26.1C52.6,25.3,51.9,24.6,51.1,24.6z M29.4,47.5l4.2,3.8
		l-4.2,3.8V47.5z M33.2,28.4v10.8c2.3-0.8,4.7-1.2,7.1-1.3c1.7-0.1,3.3,0.5,4.5,1.7c1,1.1,1.6,2.5,1.6,4v11.5h-3.8V43.7
		c0-0.9-0.4-2-2.4-2c-2.8,0.2-5.6,0.9-8.2,2l0,0L29.4,45V28.4H33.2z M111.2,34.6c3.1,0,6.3,2,6.3,6.8s-3.2,6.8-6.3,6.8
		s-6.3-2-6.3-6.8S108.1,34.6,111.2,34.6z M139.6,34.8v7.8c0,1.8,0.6,2.6,2,2.6s2-0.8,2-2.6v-7.8h3.4v7.8c0,3.5-1.6,5.4-5.4,5.4
		s-5.4-2-5.4-5.4v-7.8H139.6z M124.9,34.8v4.7l3.5-4.7h4l-4.3,5.2l4.7,7.9h-3.9l-3.1-5.2l-1,1.2v4h-3.5v-13L124.9,34.8z M86.7,34.8
		v2.9H81v2.1h4.1v2.8H81V45h6v2.8h-9.4v-13L86.7,34.8z M95.9,34.8c3.3,0,5.3,1.1,5.3,4.2c0.2,1.7-0.9,3.3-2.5,3.8l2.7,5h-3.7
		l-2.5-4.5h-1v4.5h-3.4v-13L95.9,34.8z M65.3,34.8v4.8h4.3v-4.8h3.5v13h-3.5v-5.2h-4.3v5.3h-3.5v-13L65.3,34.8z M111.2,37.5
		c-1.8,0-2.8,1.5-2.8,3.8s1,3.9,2.8,3.9s2.8-1.5,2.8-3.9S113,37.5,111.2,37.5z M95.8,37.7h-1.5v3h1.5c1.4,0,2-0.4,2-1.5
		S97.2,37.7,95.8,37.7z M46.4,28.4c-0.3,2.3-1.3,4.5-2.8,6.2h-3.8c1.4-1.8,2.4-3.9,2.8-6.2C42.7,28.4,46.4,28.4,46.4,28.4z"/>
</g>
</svg>
